<?xml version="1.0" standalone="no"?>
<!DOCTYPE svg PUBLIC "-//W3C//DTD SVG 1.1//EN" "http://www.w3.org/Graphics/SVG/1.1/DTD/svg11.dtd" >
<svg xmlns="http://www.w3.org/2000/svg" xmlns:xlink="http://www.w3.org/1999/xlink" version="1.1">
<metadata></metadata>
<defs>
<font id="sexy_beachyregular" horiz-adv-x="442" >
<font-face units-per-em="2048" ascent="1638" descent="-410" />
<missing-glyph horiz-adv-x="409" />
<glyph horiz-adv-x="0" />
<glyph horiz-adv-x="682" />
<glyph horiz-adv-x="0" />
<glyph horiz-adv-x="0" />
<glyph unicode="&#xd;" horiz-adv-x="409" />
<glyph unicode=" "  horiz-adv-x="409" />
<glyph unicode="&#x09;" horiz-adv-x="409" />
<glyph unicode="&#xa0;" horiz-adv-x="409" />
<glyph unicode="A" horiz-adv-x="946" d="M-246 -92q27 106 103 274q60 130 153 281q24 38 71 114.5t71 114.5q9 13 7.5 17.5t-20.5 11.5q-29 10 -87.5 30.5t-88.5 30.5q-2 1 -5 2t-5 2q-18 9 -10 19q7 10 30 10q32 -4 50 -4q85 -6 174 -12h24q113 163 139 200q33 48 100.5 144.5t100.5 144.5q33 46 72 109 q6 9 6 20q2 9 29 27q20 10 41 0q4 -4 14 -4q33 -3 45 -13t8 -30q-5 -22 -15.5 -67.5t-15.5 -67.5q-4 -14 -20 -81t-27 -102q-7 -26 -59 -198q0 -7 -2 -11q4 1 22 7q37 9 150 41q33 9 55 -5q-6 -11 -35 -24q-82 -39 -198 -88q-17 -7 -21 -23q-6 -27 -17.5 -80.5t-17.5 -79.5 q-31 -171 -34 -296v-10q0 -58 32 -130q20 -43 56 -133q6 -10 10 -37q0 -16 -31 -16h-14q-43 0 -55 24q-59 93 -72 170q-11 56 -37 115q-71 166 -96 215q-7 16 -17 32.5t-23.5 37.5t-19.5 31q-8 8 -14 16q-18 -26 -24 -37q-18 -35 -61.5 -112.5t-65.5 -120.5 q-91 -177 -230 -459q-14 -24 -20 -31q-8 -12 -23 -12q-18 2 -59 2q-23 0 -23 16v25zM141 762q32 -9 45 -14q6 9 11 14q-9 1 -26.5 2t-25.5 2zM303 709q-6 -9 4 -19q25 -20 31 -26q40 -40 82 -115q10 -18 31 -60q47 243 53 281q-82 -6 -168 -12q-19 -30 -33 -49zM367 807 q81 9 149 29q8 2 12 14q12 47 38 141.5t38 141.5q2 8 6 25.5t6 25.5h-6q-34 -53 -116 -180t-127 -197zM436 369q3 -18 6 -33h9q-1 4 -3.5 11t-4 12.5t-3.5 9.5h-4z" />
<glyph unicode="B" horiz-adv-x="1032" d="M-344 176q22 78 127 150q104 70 266 120q48 15 55 43q9 33 46 132q2 2 2 8q-31 -5 -40.5 -4t-37.5 12q-4 1 -13.5 3t-13.5 3l-24 6q-25 11 -9 25q40 33 117 65q9 4 27.5 12.5t27.5 12.5q19 5 25 20q43 114 102 263l111 264q1 2 1.5 3.5t1 4t1.5 4.5q-8 -2 -18 -2 q-210 -62 -353 -156q-2 -1 -6 -4q-7 -4 -8.5 -6t2.5 -8q-6 -3 -18.5 -10.5t-18.5 -10.5t-22 2q-22 5 -25.5 8.5t0.5 20.5q13 45 100 105q146 93 371 139q42 7 47 26q0 9 6 9q11 7 21 4q21 0 29 -8q13 -9 45 -5q79 10 141 10q22 0 43 -1q57 -3 106 -17q46 -9 68 -35 q8 -8 23 -12q37 -16 49 -47q4 -10 5 -19t-3 -22t-5.5 -17.5t-7.5 -21.5q-33 -77 -135 -172q-73 -66 -139 -119q-20 -16 -60 -44t-51 -36q-8 -4 -10 -6q4 0 10 -0.5t9 -1.5q72 -3 135 -32q106 -53 107 -139q0 -5 -1 -9q-5 -69 -59 -158q-36 -57 -111 -143q-54 -61 -108 -104 q-12 -9 -35.5 -28t-34.5 -28q-1 1 -3 2t-3 2q6 5 30.5 27.5t39.5 34.5q-1 0 -2.5 1t-2.5 1q-27 -24 -53 -41q-85 -70 -186 -123q-128 -64 -266 -100q-57 -14 -113 -14q-47 0 -94 10q-7 2 -23.5 5t-23.5 5q-76 12 -125 49q-39 29 -39 67q0 12 4 25zM-125 70q8 0 15 -1 q55 0 120 19q152 42 287 133q69 46 137 105q63 49 101 90q40 42 124 143q65 82 76 156q1 7 1 14q0 38 -19 64q-9 15 -18.5 18.5t-34.5 1.5q-77 -4 -205 -39q-25 -10 -29 -12q-13 -7 -38.5 -21.5t-39.5 -21.5q-25 -12 -30 -31q-9 -26 -29 -76t-25 -63q-3 -7 -7 -22.5 t-7 -22.5q10 2 29.5 6.5t29.5 5.5q114 21 127 23q9 1 22.5 -3.5t16.5 -9.5q10 -10 -18 -20q-3 -1 -9.5 -2t-9.5 -2q-29 -7 -86.5 -22.5t-85.5 -22.5q-48 -12 -51 -39q-1 -3 -4 -9.5t-4 -9.5q-16 -35 -49 -105.5t-49 -105.5q-1 -4 -11 -14q-7 -9 -28 -6q-16 4 -27 4 q-20 1 -27 7t-4 18q6 21 18.5 63t18.5 64q7 22 17 59q-16 -5 -31 -12q-102 -55 -113 -62q-70 -41 -114 -96q-35 -47 -35 -82q0 -61 98 -61zM135 371h6q5 16 17 45h-6q-1 -2 -17 -45zM178 487q1 0 3 -1t3 -1q20 33 29 52q12 21 23 59q1 4 5 13t6 15t2.5 14t-3.5 15q-2 2 2 15 q-19 -7 -25.5 -19t-25.5 -69q-3 -8 -19 -93zM391 872q5 3 12.5 7t10.5 6q116 76 141 96q64 49 145 123q81 68 134 129q41 47 49 74q9 25 6 47q0 23 -43 26h-27q-107 0 -244 -24q-21 -2 -28 -19q-54 -167 -70 -215q-8 -26 -30 -89t-33 -97q-13 -32 -23 -64zM981 1296h2v15h-2 v-15z" />
<glyph unicode="C" horiz-adv-x="935" d="M-111 494q2 36 13 105.5t12 78.5q19 112 57 207q56 135 144 241q91 108 192 174q102 70 215 107q49 17 113 20h20q112 -16 168 -67q60 -53 60 -122q0 -18 -4 -38q-11 -65 -86 -192q-22 -34 -52 -76q-10 -21 -43 -39q-15 -8 -24 -6q-8 3 -8 14q-1 3 -2.5 10t-2.5 13.5 t-2 11.5q-1 14 1.5 31.5t4.5 27t9.5 32.5t9.5 28q33 94 43 137q8 30 8 58q0 44 -20 79q-1 3 -5 9.5t-5 9.5q-42 -9 -101 -33q-165 -75 -282 -195q-117 -117 -183 -272q-38 -87 -63 -213q-15 -73 -21 -148q-5 -57 -5 -105q0 -21 1 -40q7 -113 37 -186q7 -17 39 -70q2 -3 5 -6 t7.5 -7t7.5 -7q39 11 72 34q21 14 45 31.5t39 29.5t41.5 34t38.5 32q105 86 184 183q48 61 66 112q2 3 14 23q10 -9 11 -19t-1.5 -21.5t-1.5 -17.5q6 14 9 31q0 1 0.5 4.5t1.5 5t2.5 3.5t5 3t8.5 1q12 -2 12 -17q1 -11 1 -22q0 -48 -25 -84q-82 -137 -181 -236 q-71 -71 -153 -127q-14 -9 -39 -20q-42 -18 -84 -18q-18 0 -35 3q-20 4 -35 4q-45 3 -86 21q-49 24 -86 78q-42 61 -67 159q-17 79 -17 159q0 29 2 59zM-8 379q4 121 10 182q12 106 47 213q45 129 90 193q6 9 20.5 26.5t20.5 26.5q62 82 103 123q152 149 368 225q2 1 6.5 3 t6.5 3q-17 0 -23 -2q-60 -16 -121 -49q-117 -56 -237 -160q-18 -13 -27 -18q45 60 160 149q-115 -67 -201 -166q-42 -47 -83 -111.5t-40 -82.5q15 20 17 22q-75 -165 -103 -315q-21 -124 -21 -211q0 -64 11 -108q-5 46 -4 57zM-2 287v10v-10zM694 918q6 14 41 81q1 2 1 5.5 t1 5.5q5 32 8 37q9 25 28 72.5t26 64.5q4 12 4 20q1 3 2 10t2 11q-25 -84 -55 -138q-56 -99 -58 -169zM809 1245v27v-27z" />
<glyph unicode="D" horiz-adv-x="1021" d="M-305 106q6 37 26 70q75 115 203 205q19 14 78 53q20 13 25 29l30 69q3 6 6 15q2 -2 5 -2q-5 -14 -9 -35q18 41 32 83t32.5 108.5t23.5 82.5l-10 -20q18 62 80 251t88 294h-12q-197 -74 -305 -129q-22 -11 -86 -54q-21 -15 -45 -30q-24 -13 -43 -4q-9 5 -13 14t2 18 q12 16 21 25q55 50 151 104q156 81 332 127q17 6 23 17q6 17 28 8q14 -8 41 -4q138 29 245 29h20q131 -3 219 -50q105 -60 125 -149q6 -24 6 -54q0 -34 -8 -75q-13 -74 -72 -189q-55 -107 -143 -219q-90 -118 -199 -233q-144 -155 -252 -240q-137 -113 -274 -178 q-67 -34 -127 -47q-32 -6 -60 -6q-33 0 -61 8q-3 0 -9.5 1t-9.5 1q-57 8 -85 36q-21 22 -21 52q0 9 2 18zM-201 104q-11 -34 4 -59q26 0 58 12q55 24 108 54q180 103 320 231q112 102 243 250q166 191 254 328q67 103 95 180q21 70 21 124q0 14 -1 27q-6 56 -45 92 q-16 16 -47 23q-44 6 -93 6t-102 -6q-21 -2 -180 -29q-4 0 -11.5 -1t-10.5 -1q136 48 303 53q-14 2 -39 3q-110 0 -254 -35q-30 -7 -36 -13t-11 -30q-24 -132 -31 -164q-25 -120 -57 -225q-21 -65 -115 -334q-3 -12 -12.5 -34.5t-12.5 -33.5q7 0 9 2q2 0 10 4q100 45 164 58 q45 10 80 10q2 -1 6.5 -1.5t7.5 -1t4 -1.5q4 -5 8.5 -7t13 -4t11.5 -3q2 -1 6.5 -6.5t5.5 -6.5q-7 -5 -20 -8h-9q-16 6 -49 -2q-52 -13 -108 -39q-88 -42 -170 -94q-20 -13 -25 -29q-8 -19 -24.5 -56t-24.5 -56q-8 -21 -53 -123q-8 -18 -33 -13q-1 0 -4 1t-4 1 q-25 5 -29 9.5t2 23.5q4 9 17 42t20 52q1 2 6.5 17.5t7.5 23.5q-1 0 -3 1t-3 1q-1 -1 -2.5 -4t-3.5 -4q-73 -63 -121 -125q-34 -48 -41 -80zM821 823q9 9 10 11q72 117 107 200q14 34 18 39q19 31 19 72q3 31 0 61q0 13 -4 37q1 -29 -6 -62t-15.5 -56t-24 -62t-22.5 -59 q1 1 6.5 5.5t10.5 6.5q-9 -24 -22 -51.5t-22.5 -45t-28.5 -51t-26 -45.5z" />
<glyph unicode="E" horiz-adv-x="991" d="M-252 252q11 56 47 110q88 139 221 240q105 81 201 129q10 7 23 12q-16 6 -43 15q-48 13 -74 39q-8 7 -21 12q-42 12 -72 54q-26 37 -26 75v10q6 63 47 119q142 205 428 289q82 22 155 22q31 0 60 -4q69 -11 144 -49q30 -15 39 -49q-4 -2 -13.5 -6t-13.5 -6 q-24 -9 -27 14q0 1 1 3t1 3q-22 6 -54 6q-26 0 -60 -4q-107 -13 -230 -69q-146 -69 -245 -173q-79 -83 -99 -143q-8 -29 -2 -45q48 -18 109 -18q28 -2 168 -2q39 0 77 12q5 2 17.5 5t17.5 5q19 6 38 6q36 0 71 -24q16 -10 41 -39q16 -20 -2 -33l20 -10l-2 -3q-2 -3 -4 -3 q-33 -8 -51 -15q-136 -47 -234 -100q-114 -62 -174 -102q-68 -42 -164 -138q-80 -83 -120 -157q-22 -46 -31 -74q-2 -5 -2.5 -15.5t-1.5 -13.5q42 -12 98 -12q15 -1 31 -1q89 0 219 19q224 30 387 76q4 1 133 43q9 3 15 6q17 8 31 8q31 0 48 -38q4 -7 -6 -17 q-29 -37 -73 -51q-169 -54 -191 -59q-203 -53 -405 -80q-55 -7 -107 -7q-44 0 -86 5q-62 9 -108 43q-15 10 -23 12q-56 15 -94 66q-31 41 -31 82q0 10 2 20zM-152 199q1 27 8.5 51.5t26.5 62.5t23 47q-32 -44 -48 -82q-12 -28 -11 -59q0 -10 1 -20zM6 68q37 -6 76 -6 q82 0 172 26q-161 -11 -248 -20z" />
<glyph unicode="F" horiz-adv-x="1290" d="M-379.5 584.5q-7.5 12.5 12.5 29.5q60 41 101 56q152 60 327 98q25 6 82 14q40 6 45 27q15 59 50 166q27 81 65 174q9 26 47 119q1 2 2 7.5t2 8.5q-8 0 -19 -1t-16 -1q-153 -18 -409 -65q-7 -1 -21.5 -3.5t-21.5 -3.5q-15 0 -29 7q-7 2 -19.5 7t-19.5 7q-17 8 -18 20.5 t16 20.5q55 24 90 35q74 26 226 53q181 34 374 49q160 12 240 12q34 1 66 1q53 0 98 -3q102 -4 301 -20q73 -6 102 -43q1 -1 3 -3.5t2.5 -3.5t2 -3.5t2 -4.5t0 -4.5t-2 -5t-3.5 -4.5q-96 7 -194 8h-25q-87 0 -193 -6q-120 -7 -187 -12t-212 -17q-34 -193 -122 -487 q11 0 31 -0.5t35.5 -0.5t29.5 1q50 4 145.5 13.5t114.5 11.5q2 0 151 6q90 4 138 4h10q73 0 98 -43q2 -2 2 -12q-8 -2 -24 -2q-5 0 -22.5 1.5t-26.5 0.5q-165 -21 -291 -39q-57 -9 -160.5 -30t-144.5 -28l-105 -18q-24 -3 -27 -19q-4 -17 -13.5 -48t-12.5 -42 q-11 -38 -33 -104.5t-29 -87.5q-1 -3 -118 -348q-2 -5 -7.5 -15.5t-7.5 -15.5q-7 1 -18.5 1t-16.5 1q-84 12 -86 12q-27 5 -20 29q8 28 25.5 87t25.5 87q14 47 39.5 141.5t38.5 141.5q5 19 35 112q2 6 2 23q-5 -1 -15 -2t-14 -2q-172 -40 -258 -58q-32 -9 -86 -20 q-11 -2 -21 -2q-26 0 -44 12q-4 1 -13.5 3t-11.5 3q-32 5 -39.5 17.5zM350 1341q4 1 13 2.5t14 2.5v2q-5 0 -14 -1t-13 -1v-5zM416 1147h4v16q3 6 6 15h-4q0 -11 -2 -15q0 -4 -4 -16zM432 1210h4q0 3 1 8.5t1 8.5q1 4 2 12t2 12q5 15 9 21q0 4 4 16h-4v-16q-1 -3 -4.5 -10.5 t-4.5 -10.5q0 -8 -4 -24q-1 -3 -3 -8.5t-3 -8.5zM473 1372q10 -10 19 -16q244 22 458 28q5 0 15.5 -1t15.5 -1v2h-31q-3 0 -9 1t-9 1q-9 3 -19 3q4 4 4 5q-2 0 -6 -1h-4q-24 1 -52 1q-104 0 -265 -12q-80 -8 -117 -10z" />
<glyph unicode="G" horiz-adv-x="1187" d="M-141 217q-6 32 -6 67q0 73 28 160q63 213 242 437q102 129 209 231q134 124 284 211q112 66 226 92q44 9 90 12h12q37 0 68 -16q31 -15 49 -31q12 -9 10.5 -16.5t-18.5 -22.5q-3 1 -10 3t-10.5 3.5t-8 4t-6 6t-0.5 8.5q-37 -2 -103 -23q-103 -38 -186 -86 q-130 -71 -287 -217q-161 -151 -290 -335q-122 -173 -166 -318q-19 -71 -19 -133q0 -41 8 -78q9 -44 45 -80q20 -21 45 -26q12 -3 27 -3q17 0 37 3q70 7 152 49q109 54 215 137q101 85 178 156q27 24 96 102q11 17 18 37q8 23 24 66t22 61q0 6 2 14q-68 -15 -129 -24 q-1 0 -2.5 1t-2.5 1q3 2 8.5 5t8.5 5q-2 2 -4 2q-65 -18 -84 -25q-40 -13 -113 -37t-92 -30q-12 -3 -35.5 -9.5t-34.5 -9.5h-6q-7 3 -39 10.5t-45 16.5q-36 22 0 45q17 12 62 31q152 69 399 127q31 7 89 18.5t81 16.5q10 0 16 2q21 9 41 9q18 0 35 -7q50 -17 60 -31 q3 -4 7 -7t9 -6t8 -5q20 -16 29 -25q6 -6 -2 -14q-45 -61 -80 -146q-15 -33 -41.5 -99t-40.5 -99q0 18 10 54.5t10 55.5q-8 -14 -14.5 -28.5t-12 -32.5t-8 -28t-7.5 -33t-7 -29q-17 -73 -17 -142q0 -88 28 -168h6q-1 13 -4 36t-4 36q-4 37 -4 57q0 8 1 13q0 32 13 73v-20 q-2 -20 -2 -44q0 -50 10 -120q4 -12 6 -20q0 -12 21 -21q31 -12 26 -31q-9 -6 -24 -12q4 -3 12 -8t12 -8q11 9 11 12.5t-11 15.5q27 3 27 -16q0 -10 -15 -25q-12 -8 -26 2q-4 2 -11.5 7.5t-11.5 7.5q-9 -1 -18 -1q-56 0 -90 34q-35 33 -58 96q-37 103 -37 190q0 11 1 21 q0 4 -2 6q-2 -1 -6.5 -3t-6.5 -3q-39 -30 -116.5 -92t-116.5 -93q-66 -49 -78 -61q-60 -60 -205 -84q-18 -2 -36 -2q-49 0 -99 16q-9 3 -92 35q-40 14 -68 45q-53 56 -65 121z" />
<glyph unicode="H" horiz-adv-x="1026" d="M-354 109v5q0 36 24 93q34 79 121 184q98 118 184 195q54 46 119 98q22 19 27 37q5 29 17 84.5t14 64.5q4 17 10 51.5t10 51.5q7 25 21.5 76.5t21.5 76.5q-2 -1 -7 -3t-7 -3q-10 -6 -31 -19.5t-31 -19.5q-16 -11 -35 -6q-21 6 -10 19q13 23 31 41q52 46 113 98 q77 69 102 106q1 1 3 3.5t3 3.5q8 1 16 1q52 0 89 -30q28 -22 4 -53q-61 -82 -99 -168q-22 -54 -47 -129q-10 -32 -43 -152q0 -4 -2 -10q12 5 23 12q45 26 96.5 56.5t113 67t95.5 56.5q8 5 22.5 12.5t25 14t17.5 12.5q8 8 17.5 27t11.5 22q75 124 84 138q46 65 100 98 q107 61 247 61h13h39q61 0 107 -34q26 -17 0 -39q-10 -10 -25 -19q-144 -108 -209 -151q-33 -22 -192 -111q-2 -2 -14 -2q6 4 18 13.5t18 13.5q-2 0 -2 2q-10 -5 -63 -37q-3 -1 -8 -12q-68 -164 -94 -242q-3 -10 -89 -318q-35 -134 -51 -200q-2 -2 -2 -6q5 -8 4 -21.5 t-3 -20.5t-7.5 -20t-7.5 -20q-11 -34 -31 -76q-1 -2 5 -8t1 -11q-3 -3 -8 -22q-2 -4 -5 -12.5t-5 -12.5q-24 -62 -51 -120q-10 -24 -21 -27.5t-51 2.5q-23 0 -27 4q-11 18 -6 31q4 21 16.5 57t16.5 51q7 27 24 88t29 107t21 88q10 42 19 88.5t19.5 106t16.5 88.5 q30 174 86 313q1 1 1 3.5t1 4.5q-11 -3 -14 -6q-195 -110 -273 -166q-13 -9 -36.5 -27.5t-36.5 -27.5q-22 -16 -25 -35q-5 -20 -16.5 -60.5t-16.5 -60.5q-2 -7 -6 -26t-8 -29q-32 -97 -117 -238q-63 -97 -119 -151q-26 -26 -65 -51q-6 -5 -37 -19q-33 -11 -59 -6 q-45 9 -60 14q-28 8 -35 29q-7 22 -14 59v27q4 8 4 12q-2 2 -4 2q0 -10 2 -14q-2 -5 -6 -15.5t-6 -15.5h-4q0 2 -1 6.5t-1 6.5zM-256.5 57.5q0.5 -2.5 2.5 -6t6 -6.5q3 1 8 3t8 3.5t5 3.5q63 41 88 86q12 24 22 39q90 134 140 248q18 44 32 84h-6q-1 -1 -3 -2t-3 -2l-80 -80 q-130 -141 -178 -235q-36 -70 -41 -121q0 -2 -0.5 -7t0 -7.5zM864 1151q49 22 167.5 96.5t127.5 89.5q-37 0 -72 -6q-105 -23 -149 -82q-6 -6 -14 -18q-3 -6 -13 -21q-11 -17 -12 -20q0 -5 -9.5 -7t-10.5 -3q-2 -3 -7 -12.5t-8 -16.5z" />
<glyph unicode="I" horiz-adv-x="638" d="M-190 84q-22 22 -22 43q0 28 38 55q35 20 45 25q17 7 32 7q17 0 31 -9q16 -10 3 -23l-37 -37q-14 -16 -14 -30q0 -19 24 -35q4 -3 31 -21q33 16 41 23q65 51 94 123q19 49 78 223q19 60 82 281q5 15 12 20q-9 -44 -35 -156q118 429 149 652q-8 -4 -20 -8q-25 -8 -37 -3 q-6 3 -9 11t1 16q7 14 18 25q6 6 36 32.5t46 42.5q4 4 11.5 13.5t11.5 13.5q24 36 41 53q10 13 21.5 15t31.5 -4q8 -2 15 -5.5t12.5 -8.5t8.5 -7.5t9 -10t8 -9.5q4 -12 -6 -19q-14 -12 -25 -26.5t-17.5 -25t-13 -29.5t-8.5 -27t-7.5 -30.5t-6.5 -27.5q-14 -49 -34.5 -142 t-24.5 -110q-58 -265 -76 -342q-41 -168 -74 -280q-29 -105 -73 -195q-26 -54 -72 -94q-23 -19 -43 -29q-30 -13 -51 -10q-158 10 -225 80z" />
<glyph unicode="J" horiz-adv-x="874" d="M-336 109q-5 28 -5 57q0 103 65 209q72 126 223 250q105 82 178 123q99 55 199 104q32 17 91.5 45t73.5 35q19 10 19 22v21q0 61 14 131q15 72 49 135l4 4l-4 4q-64 -22 -88 -32q-100 -42 -176 -72q-21 -8 -53 -15q-9 -2 -17 -2q-24 0 -44 15q-1 1 -7 6t-10 6 q-28 15 -6 31q16 11 49 26q4 2 96 35q32 12 94 34t89 32q37 11 111.5 34t111.5 35q17 9 39 -2q16 -10 4 -22t-14 -15q-10 -10 -17 -24q-23 -23 -26 -27q-62 -127 -74 -221q-1 -11 -4 -31t-4 -28q0 -13 2 -19q13 3 33 11t28 10q144 42 164 47q34 7 55 -17q6 -9 -4 -14 q-30 -15 -35 -18q-35 -16 -103 -48t-103 -49q-31 -15 -35.5 -22t-3.5 -33q2 -31 7 -90t7 -86q2 -25 6 -67.5t7 -78t5 -67.5q1 -29 1 -59t-1 -60q-3 -67 -45 -153q-50 -93 -133 -170q-84 -81 -201 -125q-91 -33 -186 -33q-80 0 -164 23q-7 2 -47 12q-90 19 -141 67 q-65 62 -74 136zM-260 143h2q0 34 2 50q-2 -1 -2 -3q0 -31 -2 -47zM-197 100q6 -61 50 -120q21 -24 57 -27q31 -3 60 -3q44 0 83 7q84 18 172 68q106 56 174 133q87 104 109 204q7 37 9 74q1 21 1 50v48q-2 60 -2 74q0 50 -4 140q-4 58 -4 86q-8 -3 -20.5 -9t-18.5 -8 q-86 -37 -158 -90q-36 -25 -192 -147q-68 -53 -125 -107q-74 -68 -127 -160q-65 -103 -65 -193q0 -10 1 -20zM90 -90v-2h16q0 2 -2 2h-14zM96 -84q45 1 91.5 13t60.5 24q-129 -32 -152 -37z" />
<glyph unicode="K" horiz-adv-x="1284" d="M-197 1149q2 14 18 22.5t42 8.5l-10 -15q-9 -17 -7 -24q2 -12 14 -16.5t31 1.5q24 5 74 27q131 63 238 170q3 3 5.5 8.5t4.5 7.5q2 3 7.5 15t8.5 18q13 19 40 19q9 0 18 -2q4 -1 13 -4.5t13 -4.5q9 -6 21 -12l-12 -18q-3 -8 -10.5 -25t-10.5 -25q-5 -10 10 -10 q-1 -2 -9 -12t-9 -16q-2 -10 -8.5 -36t-7.5 -36.5t2 -36.5v-6q-22 -111 -39 -209q0 -2 -11 -45h9q19 94 57 264q3 -4 6.5 -10t5.5 -8q-2 -13 -5 -39.5t-5 -40.5q-2 -7 -18.5 -78.5t-24.5 -108.5q-4 -27 -8 -41q16 12 18 13q133 116 139 121q89 68 162 118q81 58 199 129 q38 23 82 49t96.5 57t81.5 48q9 5 27.5 14.5t27.5 14.5q4 1 13.5 4t13.5 4q29 9 43 7t31 -17q-2 -5 -6 -8t-11 -6t-10 -5q-30 -8 -39 -16q-159 -99 -209 -135q-37 -27 -160 -131q-12 -9 -34.5 -29.5t-34.5 -30.5q-16 -14 -46.5 -40t-45.5 -40q-54 -44 -103 -82 q-40 -31 -157 -125q-11 -10 -33 -40q-3 -10 4 -17q106 -154 192 -250q13 -14 36.5 -39t43 -45.5t37.5 -38.5q125 -116 320 -190q31 -14 61 -19q20 -4 39 -4q28 0 53 9q41 15 53 49q1 3 3.5 8t3.5 8q0 8 14 8q12 1 26 -4.5t17 -11.5q2 -7 2 -14q0 -22 -24 -43 q-32 -27 -85 -33q-26 -2 -51 -2q-77 0 -157 22q-91 29 -228 101q-166 90 -299 227q-60 60 -127 156q-4 8 -10 12q-20 -33 -31 -45q-10 -13 -17.5 -25.5t-14.5 -31t-9.5 -24.5t-10 -31.5t-7.5 -26.5q-15 -49 -43.5 -147.5t-42.5 -147.5q-2 -6 -37 -103q-2 -4 -8 -12t-8 -12 q-75 9 -97 10q-25 2 -35.5 8t-9.5 21q11 75 13 84q31 116 51 180q14 47 45 98q28 43 57 137q44 147 78 269l18 71q13 31 15 45q37 145 47 193q7 33 14 78q0 4 -4 8q3 6 3 7q-1 1 -7 1q2 3 6 9.5t6 9.5h-6q-2 -3 -8 -10.5t-8 -10.5q6 2 12 2l-31 -31q-4 0 -8 -4 q-15 -3 -18 -12q-57 -38 -146 -57q-26 -6 -50.5 -6t-45.5 6q-6 2 -18.5 6t-18.5 6q-37 11 -37 43z" />
<glyph unicode="L" horiz-adv-x="1468" d="M-558.5 41.5q-8.5 11.5 5.5 24.5q7 7 33 20q101 52 250 90q21 4 58 13.5t54 13.5q90 16 135 22q25 5 31 23q7 21 41.5 119.5t52.5 152.5q15 45 70.5 211t83.5 256q62 199 100 284q12 26 25 50q5 11 13 23t20.5 28.5t17.5 22.5q6 11 23 18q14 9 30.5 7t22.5 -13 q5 -10 18 -14q14 -3 9 -23q-5 -17 -16.5 -52t-16.5 -52q-15 -53 -45.5 -159t-46.5 -159q-98 -337 -119 -405q-17 -55 -50.5 -154t-43.5 -131v-8q18 1 52 1t50 1q55 3 328 18q207 14 276 15q83 2 235.5 2.5t200.5 1.5q20 0 41 -9.5t27 -21.5q3 -6 -8 -12q-12 -6 -41 -10 q-33 -3 -98.5 -8.5t-98.5 -8.5q-170 -15 -266 -22q-113 -11 -323 -38t-250 -32q-76 -12 -160 -21q-16 -4 -25 -4q-8 -19 -24.5 -54t-24.5 -54q-8 -18 -24.5 -54t-24.5 -55q-1 -3 -3 -7l-3.5 -7t-3.5 -6q-17 -29 -65 -29h-9q-39 3 -39 25q0 45 -18 112q-5 10 4 15q8 3 26 -2 q3 0 21 -11q13 75 16 101q-18 0 -26 -2q-43 -7 -130.5 -22.5t-130.5 -22.5q-14 -2 -41 -6.5t-40 -6.5q-17 -2 -32 -2q-34 0 -63 9q-4 1 -13 2t-13 2q-26 3 -34.5 14.5z" />
<glyph unicode="M" horiz-adv-x="1626" d="M-40 1049q-5 5 1 20q33 71 53 107q66 117 168 213l6 6q28 26 60 26q24 0 49 -14q37 -20 37 -56v-5q-7 -92 -17 -152q-30 -158 -61 -281q-8 -36 -42 -175t-53 -227.5t-34 -176.5q-5 -31 -15.5 -96t-15.5 -97v-12h4q11 24 21 55q67 198 209 478q11 22 30.5 62t35.5 72.5 t32 61.5q106 196 217 346q72 97 88 117q5 6 15.5 17.5t15.5 17.5q19 21 52 21q9 0 18 -1q43 -6 77 -34q33 -27 33 -56q0 -82 -10 -119q-11 -54 -68 -286q-14 -58 -36.5 -165t-30.5 -145q-2 0 2 -4q7 11 10 19q113 191 193 293q58 76 131 143q2 2 7 6t7 6q30 25 65 30.5 t63 -3t52 -25.5q48 -36 51 -94q0 -69 -16 -147q-8 -46 -26.5 -137.5t-26.5 -137.5q-17 -105 -25 -184q-3 -23 -3 -44q0 -66 30 -120q18 -27 28 -37q14 -17 34 -17q15 0 32 9q45 21 84 66q4 4 16 20h-10q22 39 57 98q26 8 50 -12q10 -3 6 -16q-30 -118 -133 -185 q-33 -21 -78 -21q-12 0 -25 1q-4 1 -12.5 2t-13.5 2q-61 3 -108.5 38.5t-55.5 82.5q0 2 2 6q3 -4 5.5 -7.5t5 -7.5t3.5 -6h4q-1 3 -3 9.5t-3 9.5q-4 12 -4 18q-1 2 3 2q7 1 5 6q-1 2 -2 7.5t-2 7.5q0 2 -2 4l-6 24q-15 51 -15 119q0 39 5 84q1 17 4 51.5t4 51.5 q-7 -32 -17.5 -97.5t-17.5 -97.5h-6q0 2 -1 5t-1 5q-2 18 -2 40q0 77 22 202q8 43 27 129t27 129q2 4 -5 14q-6 -7 -18 -20.5t-18 -20.5q-98 -123 -185 -280q-6 -10 -24.5 -42.5t-28 -48t-27 -40t-34.5 -43.5q-2 -2 -6.5 -7.5t-6.5 -7.5q-28 -31 -54 -35q-6 -1 -14 -1 q-23 0 -55 12q-5 2 -10 5.5t-11.5 8.5t-10.5 8q-9 -6 -19 -16q-46 8 -53 47q-12 40 -12 84q5 104 47 270q12 45 71 275q11 44 11 51q-11 -11 -13 -14q-16 -25 -45.5 -71t-53 -84t-42.5 -73q-101 -185 -254 -477q-74 -140 -158 -352q-2 -4 -47 -109q-2 -4 -22 -34 q-19 -27 -55 -19q-10 2 -33 2h-7q-40 0 -46 33q-9 83 -9 108q5 214 74 515q20 90 63.5 270t63.5 270q10 41 43 203q0 10 -2 16q-40 -44 -108 -131.5t-103 -126.5q-12 6 -16 6q-21 2 -26 7zM70 309q9 30 20 80q5 21 15.5 62t15.5 61q0 2 1 5.5t1.5 5t-0.5 3.5q-7 7 -8 15 t2.5 19.5t3.5 14.5q3 30 12 66q-23 -74 -35 -114q-11 -41 -21 -103q-8 -48 -8 -90q0 -13 1 -25zM209 242q4 2 8 6q130 266 143 291q2 8 9 22q2 3 6 9.5t6 9.5q-1 0 -3 1t-3 1q-1 -3 -3 -10.5t-3 -10.5q-3 -4 -14.5 -21t-18.5 -26q-2 -4 -10 -12q0 16 6 28q52 114 53 115 q2 4 5 13.5t5 13.5q3 7 11.5 20.5t11.5 18.5q-4 0 -8 2q-2 -8 -8 -22.5t-7 -18.5q-7 -10 -14 -23q-45 -88 -53 -106q-4 -8 -14 -28.5t-16 -35t-9 -28.5q-5 -21 -12.5 -42.5t-21.5 -54.5t-17 -41q-5 -15 -16 -40.5t-13 -30.5zM689 514q0 8 0.5 24.5t1 22t2 25t1.5 22.5 q-11 -49 -11 -89q0 -43 13 -73l-4 22t-2.5 24.5t-0.5 21.5zM786 483q34 23 41 60q-24 -34 -41 -60zM793 430q5 6 14.5 18.5t13.5 18.5q-21 -17 -24.5 -21.5t-3.5 -15.5z" />
<glyph unicode="N" horiz-adv-x="1208" d="M-10 1047q-1 10 0 19.5t5 22t6 17t9 21t8 18.5q45 104 148 215q17 19 44 20t46 -18q9 -9 23 -16q18 -14 18 -29q0 -74 -4 -96q-9 -51 -29.5 -147t-27.5 -134q-3 -14 -26 -114.5t-34 -153.5q-33 -165 -41 -213q-2 -4 -2 -13l4 -2q29 61 35 72q110 224 250 430 q75 106 180 211q122 112 225 170q43 26 93 37q21 5 39 5q46 0 81 -28q5 -5 19 -10q72 -17 84 -71q4 -18 4 -38q0 -29 -8 -63q-19 -80 -80 -231q-5 -12 -68 -174q-64 -166 -76 -209q-32 -92 -51 -199q-6 -31 -7 -59q0 -50 20 -90q11 -26 22 -39q13 -16 39 -8q30 8 41 16 q42 20 68 41q63 49 157 125q20 15 21 16q6 -1 17.5 -2t17.5 -2q17 0 23.5 -7t-1.5 -18q-19 -27 -49 -57q-74 -81 -139 -125q-15 -9 -33 -18q-39 -22 -83 -22q-17 0 -34 3q-8 1 -25.5 3t-25.5 3q-81 10 -143 68q-61 56 -68 139q-3 20 -3 40q0 53 17 112q34 128 109 301 q10 23 38.5 87t42.5 96.5t34 84t34 94.5q18 62 33 123q1 5 2 16t2 17q-10 -2 -22 -6q-77 -35 -174 -113q-157 -130 -293 -325q-166 -241 -275 -482q-12 -26 -34 -76.5t-35 -76.5q-3 -7 -7.5 -14t-11.5 -16t-10 -13q-9 -13 -27 -10q-20 0 -30 -2q-36 -2 -53.5 6.5t-18.5 29.5 q-1 20 -1 38q0 42 5 75q68 395 76 438q8 38 26.5 119.5t26.5 124.5q40 205 47 246v16q-11 -8 -14 -14q-6 -9 -100 -154q-10 -15 -8.5 -19.5t20.5 -15.5q4 -2 8 -6q-24 -16 -45 -16q-51 3 -51 29zM254 1171h4v17l6 12q2 11 9 41t10 47q2 14 -2 35q0 3 -9 12q-1 0 -2 -1t-2 -1 q-2 -25 -5 -72.5t-5 -72.5q-1 -3 -2 -9t-2 -8zM954 883h7q0 6 4 22q7 7 10 13q5 15 36 102t46 133q10 33 14 98q3 20 -12 35q-5 -5 -2 -8q5 -20 5 -41q0 -25 -7 -53q-11 -37 -33 -105.5t-31 -99.5q-4 -12 -13 -37t-13 -37z" />
<glyph unicode="O" horiz-adv-x="864" d="M-119 356q16 168 86 396q69 215 158 360q75 124 127 184q43 50 88 82q37 24 61 35q22 9 41 9q21 0 39 -11q9 -4 9.5 -9t-5.5 -20q-10 2 -30 2q-49 -43 -105 -116q-84 -114 -157 -281q-51 -125 -80 -239q-52 -213 -58 -244q-23 -112 -23 -216q0 -22 1 -44q4 -112 45 -172 q2 -8 10 -15q4 -4 8 -6q13 3 54 29q44 34 86 86q97 110 198 305q78 160 113 240q82 190 102 323q6 46 6 82q0 29 -4 51q-5 23 -16 52q-1 2 -14 20q-65 -35 -105 -78q-42 -49 -70 -84q-40 -44 -47 -69q12 0 35 4t35.5 5t32.5 -5q-2 -6 -2 -23q-5 -2 -20.5 -8t-20.5 -8t-20 -7 t-20 -5t-20.5 -2t-21.5 2h-29q-61 0 -61 40q-3 18 4 39q53 135 213 238q50 33 112 33h10q62 1 106 -23q46 -26 56 -78q10 -40 10 -82q0 -35 -7 -71q-3 -15 -10.5 -47t-10.5 -47q-2 -8 -3 -25t-3 -25q-5 -22 -16.5 -65t-16.5 -64q-6 -24 -6 -26q2 3 7 9t7 9h4 q-25 -74 -38 -100q-62 -135 -103 -215q-39 -75 -104 -178q-54 -85 -129 -160q-73 -73 -136 -103q-39 -16 -63 -18q-1 0 -104 -6q-13 0 -25 4q-116 40 -143 121q-20 60 -20 155q0 37 3 80z" />
<glyph unicode="P" horiz-adv-x="1239" d="M-238 344q25 76 115 143q23 20 39 0q4 -8 2 -12q-2 -11 0.5 -15.5t15.5 -8.5q12 -5 13.5 -7.5t-2.5 -13.5q-45 -79 -58 -104q-3 -4 -4.5 -8t-3 -9.5t-2.5 -9.5q6 -1 12 -1q24 0 56 13q8 2 12 19q55 145 72 194q114 345 151 459q26 89 56 205q0 1 4 22q-258 -82 -377 -192 l12 -12q0 -1 -1 -2.5t-1 -2.5q-28 -9 -47 9q-2 0 -6 4q-28 11 -28 36q0 12 7 27q28 51 86 103q77 66 191 118q105 52 188 76q190 60 365 60q176 0 280 -39q192 -71 248 -209q3 -10 12.5 -32.5t12.5 -33.5q9 -31 9 -65q0 -57 -26 -121q-36 -89 -123 -182q-95 -95 -180 -158 q-82 -62 -174 -117q-118 -73 -219 -127q-147 -83 -256 -117q-35 -12 -162 -40q-20 -4 -22 -15q-31 -78 -64 -174q-2 0 -2 -6q21 -5 21 -29q0 -45 -25 -80q-9 -15 -19 -16.5t-28 6.5q-4 2 -16 6q-22 6 -30.5 14t-8.5 25q0 42 6 60q7 36 23.5 103.5t19.5 80.5q4 12 4 20 q-16 4 -32.5 12t-26.5 14.5t-27 18.5t-25 17q-42 27 -42 65q0 14 5 29zM-79.5 1108q1.5 -2 1.5 -8q10 5 31 16.5t31 16.5q4 0 4 -5q-4 -4 -19 -12t-22 -16q172 88 264 123q23 9 32 17t5 24v2q7 20 28 8q8 -3 31 -17q2 0 7.5 1.5t7.5 1.5q122 38 266 57q81 11 157 11 q82 0 156 -13q2 0 8 -1t9 -1q-74 34 -142 37q-30 2 -61 2q-52 0 -109 -6q-88 -11 -246 -46q-8 -1 -22 -4t-19 -4q-2 0 -2 4q18 5 62 23q-114 -23 -223 -68q-139 -57 -215 -121q-1 -1 -6.5 -5t-6.5 -5t-5 -5.5t-2.5 -6.5zM37 344q2 0 4 -2l6 12q7 18 19.5 54t15.5 43 q3 6 8 19t8 19t9.5 19.5t9.5 19.5q2 4 5.5 10.5t5.5 10t3.5 9.5t-0.5 9q-5 15 2 37q8 30 21 68q0 2 1 6t1 6q-11 -18 -23 -53q-14 -36 -20 -49q-10 -30 -21 -52q-14 -36 -20 -49q-13 -39 -19 -51q-3 -7 -0.5 -22.5t-1.5 -22.5q-4 -6 -14 -41zM100 369q16 5 31 12 q175 87 209 106q165 85 326 193q179 123 262 215q93 106 114 207q7 26 7 51q0 39 -17 72q-11 22 -35 30q-95 36 -209 39h-36q-89 0 -179 -12q-105 -13 -237 -47q-4 0 -12 -4v-62q-15 -148 -72 -346q-47 -164 -135 -411q-4 -7 -17 -43zM512 471l4 -4q87 50 105 59 q11 6 32 19.5t39 23.5t35 17q-7 -6 -21.5 -17.5t-21.5 -17.5q6 0 8 2q113 76 166 115q125 89 205 194q10 16 20 29q-1 0 -3 1t-3 1q-60 -76 -137 -135q-91 -73 -168 -111q6 5 28.5 23t30.5 24.5t27 22.5t29.5 25.5t25.5 23t27 26t23 25.5q-18 -14 -53 -42.5t-54 -41.5 q-27 -20 -112.5 -84t-131.5 -98q-12 -8 -14 -10q0 -2 4 -6h-2q-14 -14 -29 -23q-31 -25 -59 -41z" />
<glyph unicode="Q" horiz-adv-x="1267" d="M-299 -57q64 39 131 59q42 15 107 33q12 4 22 6q-26 13 -35 16q-91 38 -125 131q-16 43 -16 93q0 63 25 137q40 123 143 272q78 114 219 262q117 127 240 230q161 131 274 188q71 38 143 49q17 3 33 3q54 0 94 -33q37 -33 39 -56q3 -11 -4 -28q-4 2 -12.5 6.5t-13.5 7 t-8 8.5t-1 14q-13 6 -34 2q-39 -5 -86 -26q-30 -15 -105 -60q-163 -109 -321 -258q-30 -29 -183 -176q-19 -19 -30 -22q-5 -1 -21 -17q-103 -114 -156 -194q-73 -110 -106 -180q-40 -85 -43 -162v-12q0 -51 23 -97q17 -29 42 -41q20 -9 51 -9q8 0 17 1q22 1 86 19 q50 16 127 55q159 88 332 227q166 128 297 268q117 123 184 263q49 108 49 188v6q-3 22 -10 51q-3 13 -25 19q-25 5 -52 5q-20 0 -42 -3q-96 -13 -200 -66q-47 -24 -80 -69q-84 -111 -131 -209q-22 -49 -25 -92q0 -9 -2 -13q-4 -4 -10 -4q-4 -2 -10 4q-5 15 -5 21 q-1 12 -1 25q0 41 14 85q31 88 92 189q29 51 76 123q52 70 145 100q45 15 88 15q57 0 109 -27q12 -8 24 -8q79 -14 121 -76q51 -73 51 -144q0 -13 -2 -26q-13 -115 -94 -240q-46 -70 -119 -153q-30 -31 -135 -123q-124 -106 -229 -185q-129 -99 -238 -155q-17 -10 -29 -15 q-2 -1 -5 -2t-5 -2q0 2 -2 2q10 7 33 25l-2 2q-24 -13 -73.5 -38t-74.5 -38q74 12 103 19q10 1 39 16q75 42 186 123q3 2 10.5 5.5t10.5 4.5q-80 -70 -203 -143q43 6 90 12q251 28 326 29q80 0 137 -35q19 -10 22 -27q-6 -4 -16 -14q-26 3 -53 3.5t-58 -2.5t-51 -6 t-57.5 -9.5t-52.5 -8.5q-134 -18 -351 -61q-76 -14 -256 -57q-46 -11 -128.5 -32t-118.5 -30q-10 -3 -46 -8q-32 -6 -49 14q-2 2 -7 6.5t-7 6.5q-36 20 0 43z" />
<glyph unicode="R" horiz-adv-x="1474" d="M-197 514q13 28 72 64q135 89 289 153q8 3 29.5 14.5t35.5 16.5q29 9 39 37q66 201 129 379q7 21 23.5 60.5t19.5 45.5q6 9 9 21q-35 -7 -90.5 -26.5t-77.5 -25.5q55 30 120 54q7 2 21.5 7t21.5 7q23 10 21 22q-5 -2 -15 -4t-14 -4q-21 -7 -60.5 -21.5t-60.5 -21.5 q-57 -23 -79 -24q-5 0 -9 -4q-106 -50 -159 -101q12 -1 16.5 -4.5t4.5 -6t-3 -9t-4 -8.5q-15 -2 -19.5 -2t-14.5 4.5t-13 5.5q-17 8 -10 22q13 36 47 68q99 86 293 162q56 21 137 45q28 10 41 22q28 28 48 32q3 1 7 1q20 0 57 -16q112 22 215 28q42 2 81 2q193 0 323 -53 q160 -64 160 -173q0 -31 -13 -66q-15 -46 -98 -121q-90 -81 -242 -176q-130 -81 -364 -203q-64 -30 -131 -64q-31 -13 -31 -37q17 -162 113 -329q102 -170 284 -314q9 -8 30.5 -20.5t25.5 -15.5q10 -8 26 -13q36 4 45 4q11 2 19 -6t8 -20q2 -8 -6 -15.5t-21 -7.5 q-16 -3 -39 2q-52 21 -57 23q-83 43 -174 116q-249 205 -371 447q-18 37 -26 47q-6 -16 -9 -29q-8 -29 -33 -119t-40 -139q-14 -48 -43.5 -144t-44.5 -144q-8 -25 -51 -25h-9q-10 0 -26 4q-42 3 -53.5 10.5t-10.5 30.5q7 114 19 186q4 28 53 277q3 21 12 51q-21 -7 -56 -20 t-52 -19q-50 -17 -56 -18q-27 -6 -51 -6q-40 0 -70 18q-12 7 -37 22.5t-38 22.5q-25 17 -13 41zM106 616q2 -2 7 -2q2 2 7 5.5t7 5.5q18 6 33 12q7 5 20 8q34 6 42.5 14t0.5 27q-11 -8 -46 -27.5t-48 -33.5q-4 -1 -11.5 -4.5t-11.5 -4.5zM516 842q-3 -16 10 -23q6 -3 21 -18 q2 1 6 2t6 2q8 4 24.5 12t24.5 12q302 147 469 261q130 87 189 167q30 41 30 74q0 10 -2 19q-6 19 -34 28q-98 28 -205 31q-18 1 -38 1q-130 0 -292 -30q-34 -6 -39 -24q-14 -39 -40.5 -116t-39.5 -116q-37 -113 -53 -170q-6 -18 -18.5 -56t-18.5 -56zM563 702 q80 20 323.5 155.5t299.5 191.5q-21 -14 -23 -15q-20 -12 -85 -51.5t-103 -60.5q-185 -102 -391 -191q-31 -14 -21 -29zM565 741l4 -4q9 5 27 14.5t27 14.5q-41 -11 -58 -25zM700.5 1402q0.5 -2 1.5 -5q210 26 232 28q45 4 92 4q67 0 135 -8q0 1 1 3t1 3q-47 9 -65 11 q-37 5 -87 5q-39 0 -87 -3q-60 -2 -203 -27q-6 -2 -9.5 -3t-7.5 -3.5t-3.5 -4.5z" />
<glyph unicode="S" horiz-adv-x="911" d="M-172 -12q-3 15 -3 31q0 61 36 139q16 33 90 164q10 17 25.5 16.5t31.5 -14.5q21 -18 21 -43q0 -11 -4 -23q-7 -19 -22.5 -57.5t-22.5 -57.5q-18 -40 -29 -57q4 9 8 31q-15 -33 -22.5 -56t-10.5 -58t11 -60q8 -1 16 -1q24 0 49 11q77 36 113 55q91 51 164 115 q98 80 129 153q6 16 6 52q0 31 -35 49q-3 1 -31.5 16t-44.5 21q-176 78 -250 215q-41 76 -53 131q-3 15 -3 31q0 47 26 106q42 89 108 176q47 60 94 107q74 74 133 123q91 77 252 122q30 9 66 9h7q46 0 54 -37q3 -19 27 -19q24 -3 37 -22q25 -43 28 -86q0 -63 -22 -131 q-9 -24 -19.5 -50.5t-23 -58.5t-19.5 -49q-13 -33 -67 -147q-45 -109 -51 -152q-2 -6 -2 -39v-18q-64 17 -80 51q-17 34 -17 67q0 16 4 31q9 41 52 191q12 36 35.5 108.5t35.5 108.5q16 50 33 112q1 3 2 11t2 12q-58 -28 -76 -39q-83 -51 -188 -168q-84 -101 -111 -143 q-61 -86 -98 -176q-16 -41 -15 -80q0 -36 13 -68q12 -35 41 -84q18 -38 74 -65q39 -19 74 -37q114 -58 165 -131q26 -33 26 -71q0 -22 -9 -46q-16 -38 -66 -88q-104 -98 -260 -178q-95 -51 -164 -64q-1 0 -47 -6q8 3 27 8t31.5 10t21.5 13q12 2 31 10q-1 0 -2 1t-2 1 q-12 -6 -27 -12q-7 -4 -25 -8q-65 -21 -112 -21q-71 2 -115 31.5t-51 81.5z" />
<glyph unicode="T" horiz-adv-x="1433" d="M-129.5 1210q-3.5 10 6.5 19q12 12 49 35q69 36 176 61q136 28 234 43q132 20 231 33q29 2 82 10q26 3 39 16q11 12 27 14.5t30 -7.5q17 -15 50 -15q41 1 122.5 3t122.5 3q114 0 340 -4q86 0 148 -41q4 -3 12.5 -10.5t11.5 -9.5q-9 -22 -8 -23q1 -4 3.5 -7t7.5 -6.5 t8 -6.5q-4 -1 -11 -2t-10 -2q-125 -2 -323 -21q-129 -14 -213 -26q-93 -11 -256 -37q-6 -14 -27 -66q-7 -17 -33.5 -80t-40.5 -96q-4 -8 -37 -81.5t-51 -110.5q-131 -291 -145 -326q-15 -38 -135 -377q-2 -4 -4.5 -13t-4.5 -13q-13 -29 2 -56q10 -17 10 -37q0 -23 -14 -49 q-10 -20 -29 -23.5t-38 11.5q-16 12 -53 20q-39 7 -46 43q-3 25 0 50q18 98 35 163q55 198 92 314q34 103 88 239q38 100 66 160q13 28 40.5 85.5t41.5 86.5q2 4 10 12q2 -2 4 -2q-13 -29 -34 -83t-31 -78h4q90 192 137 290h-18q-53 -5 -160 -15t-160 -15q-30 -3 -103.5 -11 t-113.5 -12q-4 0 -12 -0.5t-15 -0.5t-12 1q-32 5 -35 12q-8 10 -39 23q-15 6 -18.5 16zM403 889q3 0 5 -2q0 2 1 4.5t1 3.5l-2 2q-1 -1 -2.5 -4t-2.5 -4z" />
<glyph unicode="U" horiz-adv-x="1114" d="M-78 471q16 171 80 379q40 128 88 235q22 44 27 52q15 21 41 12q56 -17 56 -69q0 -13 -3 -27q-9 -42 -35 -144q-2 -10 -53 -219q-30 -138 -41 -248q-11 -92 -11 -161q0 -55 7 -95q3 -17 16 -59q1 -3 15 -27q37 17 73 58q70 68 166 213q43 64 115 185.5t92 154.5 q8 13 42.5 70.5t51.5 88.5q6 11 35 76q9 20 41 93t51 112q53 116 90 188q6 12 41 70q13 19 25.5 22.5t34.5 -4.5q8 -4 14 -4q25 6 57 -18q15 -10 35 -39q2 -1 2 -14q-6 -18 -8 -21q-9 -20 -51 -112.5t-66 -141.5q-75 -152 -121 -305q-21 -65 -63 -217q-12 -48 -23 -125 q-4 -24 -8 -52t-8.5 -61.5t-7.5 -52.5v-20h4q11 18 22 32q6 10 11.5 12t17.5 -1v-11q0 -51 -26 -100q1 2 4 6t4 6q5 10 15 32t15 32q7 11 9 16q10 14 22 6q10 -15 8 -20q-5 -56 -49 -119l-8 -8q-16 -16 -27 -19.5t-32 1.5q-24 6 -52 6q-31 0 -43 18q-36 43 -49 109 q-3 20 -8 61t-8 62q0 4 -2 10q-3 -4 -10.5 -14.5t-10.5 -16.5q-66 -104 -147 -197q-47 -56 -115 -94q-42 -27 -89 -27q-17 0 -34 3q-21 6 -45 6q-72 3 -106 49q-54 67 -66 147q-9 54 -9 119q0 56 7 121zM25 217q9 -70 28 -94q-2 7 -6 20.5t-6 20.5q-12 54 -12 119q0 27 2 55 q13 200 59 375q5 19 19.5 59t19.5 59q11 34 28.5 97t20.5 73t7.5 30t7.5 30h-7l-14 -42l-14 -42h-6q4 17 13.5 56t14.5 59h-6q-9 -29 -40.5 -132.5t-45 -150t-32 -126t-27.5 -144.5q15 64 26 106q5 -5 2 -12q-12 -82 -18 -125q-17 -119 -17 -215q0 -40 3 -76zM381 238l4 -2 q1 2 4 7t4 7q3 3 9.5 10t9.5 10q68 110 125 193q24 35 32 110q0 2 -4 2q-17 -27 -94 -165q1 0 2 -1t2 -1q6 9 18.5 27.5t18.5 27.5q2 -2 6 -2q-4 -8 -6 -10q-3 -5 -96 -164q-18 -27 -23 -37zM629 337.5q1 -9.5 3 -21.5t3 -19q2 -18 6 -52t6 -52q3 -12 6 -21q4 6 4 16 q-9 43 -9 90q0 71 20 152q2 8 9 24.5t9 24.5q7 26 19.5 80.5t19.5 81.5q0 3 1 10.5t1 10.5h-6q-6 -23 -19.5 -70.5t-19.5 -71.5h-6q1 8 10 76q-24 -24 -27 -45q-27 -113 -30 -195q-1 -9 0 -18.5zM719 764q4 8 11 24.5t11 24.5h-6q-21 -30 -16 -49z" />
<glyph unicode="V" horiz-adv-x="1060" d="M-98 895q9 31 14 43q53 89 107 141q3 5 8 8q19 15 35.5 18t42.5 -5q112 -38 118 -139v-16q0 -36 -6 -95q-1 -9 -18 -150q-2 -11 -9.5 -52t-9.5 -64q-11 -118 -16 -193q-2 -29 -2 -58t2 -57q0 -2 12 -100q0 -2 4 -14q35 80 45 106q80 189 127 275q38 72 90 149 q86 124 166 221q82 102 176 193q160 157 314 274q62 46 139 93q41 27 139 51q30 6 47 -15q6 -12 -4 -20q-2 0 -10 -4q-129 -63 -229 -168q-135 -139 -217 -230q-139 -164 -193 -243q-20 -32 -63 -95.5t-64 -95.5q-65 -101 -96 -157q-17 -29 -72 -142q-9 -19 -26.5 -57 t-26.5 -57q-35 -82 -43 -99q-23 -49 -72 -145q-2 -2 -6 -10q-17 -26 -48 -28.5t-54 22.5q-8 8 -10 12h-7q-24 -21 -49 -2q-10 6 -16 16q-82 130 -105 266q-10 66 -10 137q0 30 2 62q2 45 19 150q2 24 9.5 68.5t8.5 51.5q4 23 13.5 72t13.5 72q2 19 5 54t5 52 q-55 -35 -90 -69q-3 -3 -9.5 -10.5t-9.5 -10.5q-6 -6 -2 -10q9 -12 -6 -19q-15 -11 -26 -4h-11q-29 6 -26 27zM94 326h2v26h-2v-26zM100 279v10v-10zM223 49q-1 -2 1 -6l1 -4h6q15 36 41 104.5t37 96.5h-6q-13 -32 -40 -95.5t-40 -95.5zM774 877h4q2 2 6 10h-4q-2 -2 -6 -10 z" />
<glyph unicode="W" horiz-adv-x="1425" d="M-195 156q-2 20 -2 42q0 79 25 185q6 26 15 52.5t23 63t19 52.5q39 115 86 199q75 139 148 204q50 50 108 68q36 11 60 0q13 -9 14 -10q0 -9 12 -11q4 0 5.5 -1.5t0.5 -4.5t-4 -6q-40 -35 -47 -41q-39 -37 -88 -121q-60 -97 -125 -256q-36 -95 -69 -215 q-29 -120 -29 -191v-9q0 -84 35 -140q5 -10 14 -22q11 -14 20 -17t31 0q41 10 93 35q61 35 118 99q111 122 199 309q42 92 65 207q2 11 6.5 32.5t6.5 32.5q1 3 2 9t2 8q9 21 35 18q18 0 20 -12q0 -18 27 -35q6 -3 6 -12q2 -8 2 -29q4 22 8 33q2 0 7.5 1t7.5 1l10 20 q41 -18 41 -54v-5q-2 -30 -2 -56q0 -81 16 -139q22 -83 86 -166q26 -41 76 -84q6 -5 49 -32q12 -9 29 -2q28 9 43 30q30 40 47 97q24 70 43 202q15 111 16 140q5 101 5 169q0 34 -1 60q-5 109 -33 256q-33 173 -36 193q-2 19 -4.5 56t-4.5 56v4q1 17 7.5 19.5t25.5 -2.5 q33 -9 43 -35q23 -62 29 -84q30 -109 41 -158q33 -123 72 -287q30 -127 32 -204q1 -30 1 -60q0 -100 -15 -196q-10 -69 -31 -160q-13 -57 -45 -100q-21 -32 -51 -50q-33 -22 -82 -22q-22 0 -47 4q-50 7 -82 14q-31 6 -82 29q-93 49 -162 131q-10 13 -75 98q-8 -8 -11 -14 q-47 -100 -116 -201q-55 -83 -117 -135q-83 -63 -168 -86q-35 -11 -75 -11q-28 0 -58 5q-15 4 -45 8q-122 18 -176 98q-40 60 -50 136zM117 797q2 0 2 -2q2 4 6 8l-2 2q-2 -4 -6 -8zM135 829q2 -2 4 -2q7 10 21.5 32t21.5 32q-4 0 -4 2q-12 -20 -43 -64zM219 940h4q6 6 10 8 l-2 2q-2 -2 -6 -5t-6 -5zM244 963q2 0 2 -2l6 6q0 1 -1 2t-1 2q-2 -4 -6 -8zM575 424h3q0 4 2 6h-5v-6zM1133 1184q4 -12 4 -15t1 -9t1 -9l18 -141q3 -23 8.5 -71t8.5 -71q15 -95 15 -181q0 -26 -1 -50q-12 -141 -12 -145q-5 -51 -27 -185l-6 -24q-1 -4 -2 -11.5t-2 -11.5 q30 74 45 203q14 119 14 203q0 34 -10 204h2q3 -9 8 -14q0 29 -6 59t-18.5 91t-18.5 92q-2 13 -9 38t-9 33v15h-4z" />
<glyph unicode="X" horiz-adv-x="970" d="M-543 -385q-6 13 8 31q10 12 32 35t32 34q26 29 77 90t77 91q21 25 58.5 70t68.5 82.5t57 70.5q20 24 53 70t45 61q21 27 44 58.5t50.5 69t42.5 58.5q126 172 168 232q12 15 6 34q-42 143 -65 232q-13 49 -39 148.5t-39 148.5q0 7 -10 14q-2 -7 -7 -26.5t-7 -30.5 q-2 -17 -9 -59t-10 -66v-2l-1 -7q-1 -7 -2 -9t-5 -6t-10 -5q-15 -4 -31 3t-18 18q-2 8 -6.5 24.5t-6.5 28t-2 22.5q-2 20 -2 40q0 88 37 161q4 12 10 21q14 26 39 26q10 0 23 -4q27 -9 63 -31q23 -14 39 -49q34 -91 39 -108q32 -109 84 -303q3 -12 10 -38t10 -38h5 q8 8 20 24q34 49 102.5 148.5t102.5 148.5l153 222q5 8 13 17t17.5 19t14.5 15q1 1 5 2t6 2q2 -1 35 -23q4 3 9.5 8t8.5 7q11 -2 19 -8t11 -10.5t9 -14.5q5 -5 -4 -18q-46 -78 -74 -134q-58 -111 -108 -266q-43 -124 -70 -254q-30 -149 -43 -237q-8 -56 -8 -114 q0 -50 6 -101q3 -28 35 -103q4 -9 24 -59q7 -20 -10 -23q-21 -7 -33 11q-2 2 -5.5 8t-6.5 10q-12 -4 -19 -4q-1 -4 -2 -10.5t-2 -10.5q-2 0 -7 -1t-7 -1q-3 2 -12.5 5t-15.5 7t-9 9q-19 33 -22 45q-5 17 -13.5 53t-13.5 53q-9 30 -22 56q-87 189 -97 211l-8 16 q-22 -27 -60.5 -77.5t-56.5 -72.5q-24 -30 -72 -86.5t-53 -62.5q-21 -24 -64 -72t-65 -73q-75 -82 -135 -142q15 23 47.5 65.5t46.5 65.5q-8 -8 -24 -28q-42 -46 -125 -138.5t-125 -138.5q-17 -21 -52 -60.5t-52 -60.5q-12 -12 -15 -14q-18 -16 -43 -10q-6 1 -19.5 4 t-19.5 4zM430 584q19 -45 39 -103q2 0 4 2q18 91 66 303q-8 -8 -9 -10q-15 -21 -43.5 -62.5t-44.5 -62.5q-17 -22 -17 -44q0 -12 5 -23z" />
<glyph unicode="Y" horiz-adv-x="1075" d="M-300 45q-4 13 -4 25q0 36 28 73q56 70 104 109q95 77 184 117q55 25 113 43q91 34 162 55q28 9 43 -6q4 -4 8 -17q-38 -19 -45 -22q-147 -63 -209 -98q-60 -33 -129 -95q-66 -63 -109 -125q-22 -35 -22 -70v-9q2 -15 8.5 -21.5t24.5 -9.5q48 -12 104 -12q23 0 47 2 q76 3 154 22q73 19 143 60q81 49 131 102q41 41 70 80q44 56 78 114q24 40 53 103q33 80 57 149q5 11 15 62q16 113 22 164q4 31 4 94q-4 -4 -13 -12.5t-13 -12.5q-52 -49 -140 -116q-43 -34 -98 -48q-34 -10 -69 -10q-39 0 -80 13q-197 64 -259 208q-41 94 -41 192 q0 28 3 56q8 55 14 84q2 14 16 47q6 17 29 23q9 3 18 0q12 -4 21 -4q16 -3 16 -15q-4 0 -11 -1t-11 -1q0 -1 -1 -3t-1 -3q-10 -131 -11 -160v-15q0 -123 46 -218q23 -50 57 -82q32 -31 77 -42q18 -4 39 -4q30 0 66 9q66 23 135 72q52 34 105 94q59 59 116 139q11 18 11 31 q20 124 43 186q4 11 9 22.5t11.5 24.5t9.5 21q12 27 39 25q3 0 11 2.5t10 3.5q65 -26 76 -99q1 -10 1 -20q0 -54 -28 -113q-13 -26 -25 -47q0 -2 -3 -12t-3 -16q-8 -158 -14 -244q-1 -22 -3 -62.5t-4 -74t-5 -62.5q-5 -61 -29 -145q-22 -80 -84 -211q-38 -86 -70 -133 q-5 -7 -20.5 -30t-26.5 -38t-24 -29q-61 -64 -131 -114q-61 -43 -140 -68q-110 -37 -247 -37h-24q-64 0 -130 13q-59 12 -105 36q-22 11 -34 15q-7 3 -21 8.5t-20 7.5q-62 32 -75 80zM45 1120v15v-15zM45 1169v39v-39zM49 1235h2v10h-2v-10z" />
<glyph unicode="Z" horiz-adv-x="1308" d="M-272 82q27 42 53 72q26 28 56.5 59.5t67 68.5t56.5 58q147 147 201 197q87 84 213 200q67 62 178 162q94 82 139 123q102 87 123 106q17 16 52 50.5t53 50.5l24 24l-12 -24l2 -2q4 5 15 17t16 18q-8 1 -19 4t-14 4q-18 1 -55 4t-56 4q-44 1 -81 1q-73 0 -117 -5 q-25 -2 -53.5 -5.5t-65.5 -9t-55 -8.5q-37 -5 -48 -4q-16 1 -34 -1t-30 -4.5t-33 -8.5t-30 -8q-3 -1 -127 -37q-3 -1 -8 -5t-6 -5q-3 -2 -8 -6.5t-8 -6.5q-2 1 -5.5 3t-5.5 3q-21 13 -21 30q0 14 13 30q16 21 70 51q58 30 178 61q132 33 242 41q8 1 102 17q62 9 121 9 q66 0 129 -11q48 -12 70 -29q45 -39 51 -102q1 -10 1 -19q0 -66 -48 -127q-40 -53 -105 -108q-7 -6 -75.5 -68.5t-104.5 -93.5q-102 -88 -201 -180q-87 -77 -252 -234q-29 -27 -86.5 -84t-85.5 -84l-53 -53q-1 0 -6 -8q13 4 46 16.5t52 18.5q118 41 217 57q98 16 146 18 q97 0 196 -6q70 -7 132 -18q38 -7 100 -29q111 -40 252 -114q70 -41 100 -93q19 -35 19 -59q0 -9 4 -16q0 -3 1 -9.5t1 -9.5q4 -22 -8 -28q-7 -2 -9 -1.5t-8 4.5t-8 5q-58 35 -70 41q-83 41 -186 67q-25 6 -74 18.5t-74 18.5q-14 2 -40 5t-39 5q-91 12 -189 12q-21 0 -43 -1 q-102 0 -254 -29q-37 -8 -147 -39q-7 -2 -109 -35q-20 -7 -58 -22.5t-58 -22.5q-63 -21 -103 -33q-19 -6 -35 7q-18 12 -12 32q3 5 18 35q-7 12 -22 6q-4 -2 -12.5 -5t-12.5 -5q-19 -3 -28 12q-13 19 -13 37q0 17 11 33zM-160 -16q19 5 49 16q16 6 107.5 41t140.5 53 q166 59 355 78q65 5 131 6q89 0 182 -10q19 -1 54 -4t52 -4q-27 7 -67 14q-74 12 -221 16q-5 0 -15 5v4q7 1 21.5 3t21.5 3q0 2 -2 4h-24h-19q-156 0 -334 -45q-49 -12 -106.5 -31.5t-93.5 -33t-106 -41.5l-95 -38q-20 -8 -31 -36zM-70 160q22 5 43 26l228 228q48 48 63 61 q-41 -29 -178.5 -159.5t-155.5 -155.5zM299 514q2 0 2 -2l6 6q-2 0 -2 2z" />
<glyph unicode="a" horiz-adv-x="421" d="M-18 485q6 54 36 113q50 101 115 178q62 69 125 105q15 9 41 16q20 9 41 -2q18 -5 18 -31q20 -15 21 -20q20 -28 12 -53q-8 -29 -33 -150q-9 -50 -9 -106q0 -15 1 -31l1 -4q1 -4 1 -8q13 0 19 2q37 11 69 43q18 13 21 18q9 9 18 6q6 -4 7.5 -12t-1.5 -12q-16 -40 -49 -60 q-26 -20 -55 -26q-31 -9 -49 18q-8 8 -13 8q-21 3 -24 25q-2 10 -6 30.5t-6 30.5v43h-4q-15 -25 -21 -31q-46 -79 -102 -147q-26 -32 -58 -49q-30 -18 -59 4q-1 1 -4 3t-4 3q-23 7 -41 39q-11 25 -8 57zM16 442q1 6 3.5 16.5t3.5 16.5q5 25 40 94q62 124 148 213q3 4 22 23 q-1 0 -2 1t-2 1q-47 -47 -55 -57q-48 -53 -92 -127q-1 -1 -3 -4.5t-3 -4.5l-2 2q8 15 25.5 46t25.5 47q-4 0 -4 -2q-66 -96 -96 -179q-13 -28 -13 -56q0 -15 4 -30zM40.5 439q0.5 -2 2.5 -15q2 1 8 4.5t8 5.5q32 22 58 60q77 102 145 225q1 1 68 133q-2 0 -4 2 q-1 -1 -4.5 -2t-4.5 -2q-70 -54 -116 -111q-68 -80 -115 -176q-32 -54 -41 -98q0 -1 -2.5 -12.5t-2 -13.5zM94 414l2 -2q1 1 4.5 2.5t5.5 3.5l31 31q41 47 96 137q5 5 5 8q0 2 -2 2q-4 -6 -60 -82q-2 0 -2 2q5 9 16 26t20 31.5t15 28.5q-20 -25 -96 -141q-5 -6 -15.5 -18.5 t-15.5 -18.5l-4 -4v-4v-2zM311 571v29v-27v-2zM315 539v10v-10z" />
<glyph unicode="b" horiz-adv-x="405" d="M-49 442q0 51 2 76q6 46 19.5 134t19.5 128q49 321 98 488q7 23 23 64t20 52q3 8 17 31q31 -5 28 -35q-2 -14 -7 -39t-7 -38q-78 -400 -94 -480l1 -5q1 -4 1 -9q14 21 20 29q52 68 123 96q20 8 40 8q16 0 31 -6q34 -12 54 -45q23 -35 25 -39q15 -38 20 -66q4 -22 4 -46 q0 -46 -14 -99q-48 -185 -121 -317q-17 -32 -45 -64q-21 -21 -45 -21q-19 0 -39 13q-38 20 -62 41q-17 20 -30 49q-5 12 -17 53q-5 3 -17 7.5t-17 7.5q-14 7 -21 14q-10 15 -10 18zM70 614q5 1 30 7q28 9 37.5 4.5t22.5 -33.5q-69 -61 -69 -159q0 -31 7 -66q62 57 130 235 q55 145 56 217q0 16 -3 29q-40 -15 -71.5 -38t-57.5 -58.5t-41.5 -62.5t-40.5 -75z" />
<glyph unicode="c" d="M-37 662q22 133 113 221q39 39 77 43h9q35 0 82 -27q44 -29 71 -92q4 -8 4 -16q5 -22 -3.5 -30.5t-30.5 -2.5q-7 0 -19 6q21 26 -2 49q-20 17 -47 2q-38 -29 -53 -49q-68 -95 -78 -229q-1 -10 0.5 -30t1.5 -26q11 -3 22 -3q23 0 44 16q55 38 82 65q13 13 36 59 q17 33 39 5q21 -27 21 -60q0 -20 -8 -41q-31 -82 -109 -157q-23 -21 -48 -21q-17 0 -36 10q-79 44 -102 109q-2 12 -15 29q-54 52 -54 130q0 19 3 40zM-1 627q0 -37 13 -70q-4 17 -5 37t-1 32.5t4.5 38t5.5 31.5t9 37.5t8 32.5q-17 -40 -25 -69q-8 -31 -9 -70zM109 453 q26 -30 51 -19q50 27 92 86q-8 -6 -30 -24t-34 -25.5t-34 -14t-45 -3.5zM170 489q0 -1 1 -2t1 -2q3 2 14 13q-2 2 -2 4q-2 -2 -7 -6.5t-7 -6.5z" />
<glyph unicode="d" horiz-adv-x="440" d="M-84 481q-4 23 -4 45q0 44 18 80q16 29 35 76q2 4 8 10q-43 -114 -43 -180v-6q3 -23 9 -43q-1 15 -1 30q0 116 74 236q79 122 215 172q-47 -4 -81.5 -23t-96.5 -73q13 39 82 82q46 32 113 35q3 13 8 38.5t8 38.5q42 216 49 248q3 22 13 45q11 23 32 8q9 -5 15.5 -12 t16 -22.5t9.5 -16.5q7 -10 2 -39q-4 -27 -25 -145t-30 -182q-12 -78 -12 -80q-6 -21 -15 -80q-2 -14 -6 -42.5t-6 -43.5q-14 -110 -14 -202v-32q1 -5 2 -15.5t2 -16.5q0 -4 6 -13q21 21 31 29q16 16 28 6q19 -15 9 -31q-20 -40 -25 -47q-19 -25 -51 -6q-75 39 -82 152v55 q-2 2 -6 2q-9 -12 -15 -24q-3 -5 -16 -29t-18.5 -32.5t-17.5 -24t-25 -25.5q-1 -1 -21 -16q-20 -12 -39 -12q-23 0 -45 18q-6 5 -45 33q-38 24 -45 75zM20 442q16 9 28.5 22.5t26.5 32.5t23 29q-3 -7 -10 -20.5t-10 -20.5q34 45 62.5 106.5t41 101t35.5 118.5 q-54 -24 -109 -97q-56 -72 -82 -152q-15 -44 -15 -77q0 -25 9 -43z" />
<glyph unicode="e" horiz-adv-x="405" d="M-23 559q-1 6 -1 13q0 30 12 65q33 116 90 194q39 53 90 66q30 8 63 -2q31 -11 39 -33q0 -6 11 -12q31 -25 31 -57q0 -15 -7 -31q-2 -4 -24 -49q-8 -13 -24 -40.5t-26 -44t-24.5 -39t-28.5 -40.5q-16 -19 -72 -88q-1 -2 -4 -6t-5.5 -7.5t-4.5 -7.5q19 -8 38 -8q14 0 28 4 q64 13 123 72q6 6 15.5 18.5t12.5 16.5q13 13 15 16q16 -12 22 -18q10 -8 6 -29q-18 -53 -55 -90q-65 -61 -143 -61q-12 0 -25 1q-26 3 -45 19q-6 5 -19.5 15.5t-19.5 15.5q-65 56 -68 147zM57 522q0 -27 9 -47q19 41 80.5 155t86.5 181h-12q-2 -1 -6 -2t-6 -2 q-43 -20 -70 -68q-33 -61 -49 -98q-31 -75 -33 -119z" />
<glyph unicode="f" horiz-adv-x="380" d="M-25 100q-1 34 -1 69q0 203 34 472q3 22 9.5 77t9.5 85q5 22 8 33q1 -2 3 -5.5t3 -5.5q13 104 68 385q41 -7 41 -40q0 -17 -9 -74q-7 -50 -20.5 -149.5t-20.5 -149.5v-13q54 -17 72 -22q8 -2 21 2q11 3 169 53q2 1 10 3t11.5 3t10.5 4t11.5 5.5t9.5 6.5t9 9q10 13 22 -4 q11 -18 -2 -31q-18 -22 -26 -27q-126 -69 -156 -86q-4 -1 -22 -10q15 -29 18 -68v-28q0 -21 -2 -39q-12 -283 -152 -539q-11 -22 -14 -26q-11 -12 -25.5 -12t-23.5 14q-7 12 -25 16q-21 4 -27 10t-9 27q-1 9 -2.5 27.5t-2.5 27.5zM61 158q59 121 87 283q19 106 19 169 q0 33 -5 54q-6 0 -32 2.5t-42 3.5q-27 -288 -27 -485v-27z" />
<glyph unicode="g" horiz-adv-x="458" d="M-145 -18q5 39 43 116q50 97 145 230q2 3 8 11.5t10 14.5q-34 2 -63 35q-7 3 -10 10q-63 41 -63 114q0 29 9 62q39 138 152 248q37 34 82 62q28 19 56.5 19t56.5 -19q11 -9 36 -17q31 -13 43 -51q8 -25 8 -48q0 -25 -10 -48q-1 -3 -14 -51q21 14 23 16q90 86 137 129 q20 20 35 8q9 -8 11 -22t-5 -25q-103 -138 -185 -217q-31 -31 -34 -78q-15 -164 -76 -385q-25 -91 -47 -151q-49 -119 -129 -176q-35 -25 -67 -25q-42 0 -79 41l-4 5q-4 6 -8 7q-64 52 -64 143q0 20 3 42zM-72 -125q0 -18 6 -23.5t25 -3.5q24 4 55 31q74 62 125 184 q44 116 72 283q3 24 6 45q-2 2 -6 2l-12 -12q-66 -74 -127 -178q-12 -22 -39 -68t-46 -81.5t-34 -69.5q-25 -63 -25 -103v-6zM10 467q42 12 100.5 82t100 149t45.5 121q-27 -9 -61 -35q-70 -61 -119 -137q-48 -65 -62 -129q-8 -32 -4 -51z" />
<glyph unicode="h" horiz-adv-x="573" d="M-51 360q0 58 2 89q20 255 76 450q2 0 2 6q1 2 3 10.5t3 10.5q13 61 14 71q3 20 12.5 57.5t12.5 57.5q9 65 28 180q5 28 19 70q2 7 9.5 20t8.5 15q33 -16 33 -46v-5q-2 -10 -6 -31t-6 -31q-2 -16 -7.5 -45t-7.5 -45q-17 -109 -51.5 -326t-52.5 -325q-1 -8 -2 -23.5 t-2 -23.5h6q12 20 16 32q61 126 144 203q14 14 40 39.5t47.5 46t41.5 37.5q16 16 30 16q17 0 33 -20q34 -42 34 -88q0 -14 -3 -27q-10 -40 -20 -100q-10 -71 -11 -78q0 -11 4 -51q6 4 20.5 12t20.5 12q57 54 84 82q23 24 88 103q16 20 29 14q20 -10 12 -37l-12 -24 q-82 -131 -166 -224q-18 -20 -38 -20q-14 0 -29 10q-20 10 -48 31q-74 54 -74 152q0 12 1 24q1 5 2 18t2 19q-12 -9 -17 -14q-35 -35 -67.5 -81t-53 -81.5t-49.5 -91.5q-22 -44 -47 -88q-7 -15 -26 -37q-60 31 -64 34q-22 11 -18 41zM296 626.5q-2 -39.5 7 -57.5q3 59 6 129 q-11 -32 -13 -71.5z" />
<glyph unicode="i" horiz-adv-x="227" d="M-59 590q-4 16 10 35q14 20 40.5 60t39.5 60q31 44 43 64q4 4 12 16q15 15 31 4q18 -18 33 -36q14 -26 0 -58q-6 -14 -26.5 -57t-29.5 -66q-26 -70 -45 -131q-1 -2 -1 -7.5t-1 -8.5h4q0 1 1 3t1 3h4q-7 -46 -12 -82q7 3 17 7.5t14 6.5q73 37 151 115l27 27 q20 -9 23 -18.5t-9 -24.5q-84 -105 -162 -156q-24 -17 -47 -6q6 -34 33 -21q17 9 37 25q13 13 39 38t39 38q12 12 20 16q-3 -3 -17 -21t-22 -26q-58 -58 -73 -70q-25 -20 -40 -16.5t-30 31.5q-55 5 -72 69q-7 27 -7 59q0 36 9 77q10 35 23 84q-10 -3 -26.5 -17.5 t-30.5 -15.5zM29 420h2v24h-2v-24zM96 934q0 12 4 24t7 18.5t12.5 21t11.5 18.5q7 11 19.5 33t15.5 26q6 -1 10.5 -4.5t6.5 -7t6.5 -11.5t5.5 -10q14 -18 0 -38q-3 -5 -14.5 -24.5t-18.5 -29.5q-17 -27 -49 -35q-3 4 -9 10t-8 9z" />
<glyph unicode="j" horiz-adv-x="440" d="M-301 4q20 67 80 146q35 47 86 102.5t77 82t95 93.5q19 18 55 54l55 55q13 10 17 26v133q-15 -11 -45 -37q-7 -7 -17 -10q-23 -14 -34.5 -11t-30.5 26l5 7.5t6 8.5t7 8q84 94 117 205l4 8q8 22 22 24.5t31 -14.5q27 -31 27 -69v-8q-8 -111 -10 -164q-2 -14 -2 -45 q8 6 20 14q147 119 162 131q45 34 115 55q17 5 26 -4q17 -20 -2 -33q-7 -4 -21.5 -11t-21.5 -11q-66 -39 -76 -47q-4 -3 -188 -164q-18 -13 -18 -43q0 -58 -4 -172q-10 -167 -60 -279q-80 -173 -231 -241q-41 -16 -78 -19q-7 -1 -15 -1q-56 0 -102 55q-3 3 -8 10t-8 10 q-42 33 -42 84q0 21 7 45zM-227 -102q19 -5 37 -5q41 0 81 23q75 41 138 117q58 75 88 168q33 104 43 245q-5 -5 -10 -8l-5 -4q-33 -38 -98 -114.5t-98 -114.5q-101 -117 -137 -182q-21 -44 -37 -93q-2 -5 -2 -32zM231 999q0 11 2 21.5t7.5 22t8.5 17t12.5 20t10.5 16.5 q15 25 41 71q6 -1 10.5 -3t8.5 -7t6 -8.5t5.5 -10t4.5 -8.5q17 -24 0 -47q-6 -10 -18.5 -31.5t-18.5 -31.5q-23 -33 -61 -41q-3 4 -19 20z" />
<glyph unicode="k" horiz-adv-x="471" d="M-16 379q4 48 13 144.5t13 144.5q6 67 16.5 200t16.5 199q4 47 16 141q1 4 3.5 12.5t3.5 12.5q6 16 20 8q31 -14 31 -43q0 -55 -2 -82q-5 -74 -29 -389q0 -12 4 -22q8 15 21 32q68 106 151 150q20 10 38 10q32 0 60 -31q33 -35 33 -76q0 -17 -6 -36q-22 -68 -92 -168 q-11 -15 -33 -41q-16 -16 -10 -41q23 -73 43 -113q27 -51 88 -67q15 -4 28 -4q46 0 76 42q3 3 7 11q1 1 2 4t2 4.5t2.5 4t3.5 3t5 1.5t7 -1q19 -5 19 -31q-2 -30 -28 -58.5t-56 -31.5q-21 -2 -62 6q-16 5 -44 17.5t-32 13.5q-74 33 -127 133q-1 2 -2.5 6t-2.5 6.5t-1 4.5 q-8 3 -86 30q-27 -72 -37 -163q-30 7 -47 14q-29 9 -26 43zM160 655q2 -1 19.5 -11.5t25.5 -16.5q73 95 90 174q-79 -51 -135 -146z" />
<glyph unicode="l" horiz-adv-x="231" d="M-8 276q0 78 2 117q10 270 14 328q7 72 33 256q12 80 53 323q2 17 10 47t9 35q4 17 12 25q8 12 18.5 11t16.5 -13t8 -14q20 -12 16 -43q-3 -25 -9 -75.5t-9 -74.5q-45 -358 -53 -428q-39 -303 -58 -469q-1 -11 -1 -34t-1 -36q-7 -11 -22 -2q-1 1 -4 2t-4 2q-21 7 -26 14 t-5 29z" />
<glyph unicode="m" horiz-adv-x="681" d="M-47 428q2 18 10 45q13 35 38.5 104.5t39.5 104.5l2 8q-30 10 -35 12q-18 12 -8 33q7 18 14 27q15 18 43 52.5t43 51.5q20 25 47 4q31 -23 31 -56q0 -12 -4 -26q-3 -11 -29 -81q-4 -12 -2 -21q6 9 19.5 27.5t19.5 27.5q53 70 107 111q26 18 49 18q35 0 59 -47 q9 -23 9 -43q0 -15 -5 -30q-12 -40 -14 -66q3 3 10 9.5t12 12t9 9.5q55 55 119 98q18 14 35 14q25 0 46 -32q16 -24 16 -50q0 -12 -3 -24q-30 -91 -41 -146q-9 -29 -2 -63q6 -29 35 -20q24 6 43 22q4 3 7 7t6 9.5t5 8.5q20 -17 21.5 -24.5t-9.5 -20.5l-4 -5q-36 -37 -73 -37 q-5 0 -11 1q-43 6 -69 61q-17 33 -17 77q0 27 6 58q5 47 4 60q-4 -3 -12 -10.5t-12 -10.5q-8 -8 -33.5 -32.5t-40.5 -37.5q-4 -3 -67 -47q-17 -10 -31 4q-5 5 -17 9q-29 18 -29 48q0 5 1 11q2 24 10 62v32q-26 -26 -31 -32q-67 -77 -141 -201q-35 -58 -72 -117 q-11 -17 -22 -29q-14 -17 -31 0q-5 3 -14.5 11.5t-14.5 11.5q-26 11 -22 47z" />
<glyph unicode="n" horiz-adv-x="448" d="M-41.5 433q2.5 19 2.5 22q22 172 70 327q3 14 8.5 42.5t7.5 37.5q3 -1 8 -3t8 -3.5t5 -3.5q25 -22 25 -60q0 -9 -1 -18q0 -2 -12 -82q-3 -12 0 -26q2 3 6 8t6 8q74 134 154 203q23 20 50 15.5t42 -30.5q9 -18 12 -20q17 -13 21 -53q0 -27 -4.5 -54t-14.5 -67.5t-12 -52.5 q-23 -95 -23 -163v-11q1 -4 2.5 -12.5t2.5 -12.5q0 -2 4 -14q23 7 43 21t44.5 36.5t37.5 32.5q6 -6 18.5 -18t19.5 -19q-39 -80 -92 -113q-22 -13 -44 -13l-40 11q-12 8 -18 10q-58 16 -68 84q-7 49 -7 99q0 89 24 178q4 15 0 24q-3 -4 -9.5 -11t-9.5 -11 q-90 -119 -176 -291q-10 -20 -20 -35q-8 -19 -29 -8q-2 1 -5 3t-5 3q-3 2 -11 5.5t-13 6.5t-7 7q-3 2 -0.5 21z" />
<glyph unicode="o" horiz-adv-x="413" d="M-37 442q-10 33 -9.5 76t9.5 96q28 148 125 254l3 4q3 4 5 5q18 18 29.5 19t32.5 -13q4 0 12 4q17 6 31 6q34 0 57 -33q6 -11 16 -18q40 -40 45 -80q0 -2 3 -11.5t4 -15.5q22 7 42 23.5t29.5 28.5t28.5 38q6 -6 17 -14.5t16 -13.5q8 -8 5 -19q-7 -53 -40 -76 q-45 -32 -78 -47q-27 -12 -35 -37q-33 -107 -102 -200q-32 -43 -72 -68q-25 -16 -48 -16q-26 0 -48 20q-15 10 -18 11q-46 21 -60 77zM31 451q1 -5 4 -15.5t4 -15.5q25 4 47 26q63 63 115 185q0 4 2 10q-21 12 -56 35q-23 14 -36 63q-9 -12 -11 -16q-41 -72 -59 -150 q-12 -50 -12 -91q0 -16 2 -31zM186 702h37q5 34 5 57q0 17 -3 27q-39 -31 -39 -77v-7z" />
<glyph unicode="p" horiz-adv-x="481" d="M-39 -53q18 218 29 592q6 111 28 239q0 8 2 10q1 1 4 5t5 7t4 3q12 -6 16 -12q17 -20 17 -52q-2 -38 -6.5 -107t-6.5 -102v-20h4q3 10 15 52t20 65q24 90 66 166q26 49 80 96q28 25 56 25h5q30 -3 66 -40q47 -47 47 -133q0 -63 -25 -161q-29 -125 -61 -181 q-5 -12 -41 -63q-23 -31 -53 -31q-15 0 -31 8q-19 6 -49 25q-34 20 -46 59q0 3 -8 31q-2 -16 -6 -27q-53 -289 -67 -477q-1 -2 -2.5 -9.5t-4.5 -11.5t-8 -7q-7 3 -20.5 9t-20.5 9q-8 4 -8 14q-3 10 0 19zM123 532q11 7 31 22t36 25.5t33 16.5q12 4 34.5 11t33.5 11 q18 3 24 23q1 12 6.5 34.5t6.5 26.5q8 61 8 97q0 20 -2 32q-1 5 -5 13.5t-5 13.5q-24 -9 -39 -18q-39 -25 -64 -64q-38 -57 -69 -153q-5 -16 -14.5 -46t-14.5 -45zM188 389q64 59 103 174q-58 -22 -88 -79q-20 -38 -20 -68q0 -14 5 -27zM190 770q2 1 5 1t5 0.5t3 2.5 q7 7 30.5 32t42 39.5t41.5 24.5q-21 12 -41 0q-51 -28 -81 -86q-1 -2 -5 -14zM358 610q2 8 11 27q2 -2 6 -10q-6 -9 -6 -37q5 30 6 37q18 59 18 109q0 29 -6 55h-4q-2 -14 -6 -44l-6 -45q-1 -4 -7.5 -39t-5.5 -53z" />
<glyph unicode="q" d="M-78 547v7q0 39 19 89q69 153 196 234q18 11 56 24q19 5 37 5q34 0 65 -17q12 -6 22 0q24 12 45 -12q18 -22 27 -50q7 -14 5 -38.5t-4.5 -36.5t-9 -35t-9.5 -35q-6 -23 -21 -63.5t-20 -55.5q-10 -36 -37 -162q-28 -147 -57 -313q-12 -58 -15 -119q-1 -7 8 -30 q11 -25 -2 -35q-6 -4 -16 -0.5t-16 12.5q-17 34 -35 41q-3 0 -8 16q-5 40 -5 47v36q0 141 21 280q4 17 6 35q-19 -7 -24 -11q-24 -8 -46 -8q-53 0 -96 45q-15 18 -33 33q-46 39 -53 117zM5.5 484q0.5 -16 12.5 -25q20 -16 60 4q25 11 41 24q59 47 98 121q7 11 10 25 q8 29 27 95t29 103q-24 0 -56 -20q-88 -56 -151 -147q-58 -79 -68 -150q-3 -14 -2.5 -30z" />
<glyph unicode="r" d="M-25 406v39q0 184 25 380q1 9 2 28t2 28q1 21 9.5 25t27.5 -7q25 -19 31 -47q5 -32 5 -73q0 -17 -1 -36v-38h4q9 16 26.5 50t26.5 50q2 3 19 26q18 31 52 31q9 0 19 -2q30 -8 51 -18q25 -12 49 -12q7 0 15 1q57 7 92 39q1 1 4 3.5t4 3.5q12 12 19 2q10 -15 4 -21 q-44 -75 -99 -84q-10 -2 -67 -2q-9 0 -21 4q-26 0 -34 -20q-10 -25 -27.5 -67.5t-32 -78t-26.5 -67.5q-15 -38 -38.5 -108.5t-33.5 -96.5q-4 -18 -13 -21t-24 7q-18 10 -29 36q-20 8 -26 11q-15 9 -15 35z" />
<glyph unicode="s" horiz-adv-x="391" d="M-86 389q5 39 41 84q24 31 55 55q14 10 26.5 6t20.5 -20q14 -23 -6 -53q-24 -35 -55 -86q0 -2 -0.5 -4.5t-1.5 -6.5l-2 -8q76 21 124 45t81 70q-41 43 -119 125q-56 56 -76 123q-5 19 -5 36q0 49 38 87q50 50 106 69q30 12 53 12q16 1 28 -5q32 -14 54 -62q10 -25 17 -65 q3 -10 8 -29.5t8 -28.5l3 -12q4 -12 5 -19q-17 3 -32 19.5t-52 69.5q-74 -48 -96 -74q-22 -23 -22 -40t20 -42q7 -7 58 -53q48 -42 49 -43q49 -44 67 -131q3 -28 -10 -41q-35 -35 -53 -45q-78 -44 -162 -62q-28 -4 -47 -4q-57 3 -74 53q-10 15 -16 19q-20 10 -27.5 24 t-5.5 37zM-4 315q16 -12 27 -12q21 -3 45 4q70 15 131 58q3 2 12.5 8.5t15.5 11.5q0 1 -1 2t-1 2q-2 -1 -24 -11.5t-25.5 -12t-23 -10.5t-26 -11t-24 -8.5t-27 -8.5t-24.5 -5.5t-28 -5t-27 -1.5z" />
<glyph unicode="t" horiz-adv-x="292" d="M-145 793q4 18 32 34q41 25 107 39q12 2 34 7.5t33 7.5q17 3 23 22q21 62 62 186t61 187q3 6 8 18.5t8 18.5q15 37 43 24q12 -5 20 -20.5t5 -28.5q-4 -18 -13.5 -49t-13.5 -45q-22 -67 -76 -250q-4 -23 -8 -33q5 1 28.5 5t35.5 6q40 8 61 -2t43 -46q-4 -16 -8 -24 q-143 -31 -164 -35q-25 -6 -33 -29q-50 -181 -75 -346q-3 -14 -13 -94q-5 -22 -8 -33q-37 19 -45 25q-6 4 -6 27q4 81 10 122q7 46 21.5 137.5t21.5 137.5q1 4 2 12.5t2 13.5q-13 -2 -48 -7.5t-54 -8.5q-17 -2 -32 -2q-37 0 -56 14q-1 1 -3.5 4t-4.5 5z" />
<glyph unicode="u" horiz-adv-x="464" d="M-59 518q0 95 43 219q5 15 18 45.5t18 46.5q11 25 30 27t34 -22q5 -10 6 -11q18 -16 8 -43q-57 -173 -61 -188q-21 -70 -21 -127v-14v-27q20 -5 35 10q7 9 22.5 26.5t22.5 26.5q84 115 109 156q20 32 52.5 93t45.5 83q2 3 5.5 11t5.5 12t7.5 7.5t12.5 2.5q34 -3 49 -33 t18 -35q-48 -150 -53 -170q-17 -57 -17 -102q0 -11 1 -20q3 -25 13 -33.5t34 -5.5q34 3 65 30q9 9 21 25q2 2 5.5 6.5t5 6t6.5 3t10 -1.5q8 -3 13.5 -15t4.5 -22q-9 -59 -62 -82q-22 -10 -44 -10q-30 0 -60 19q-5 5 -14 8q-51 25 -66 78q-2 5 -5.5 15.5t-6.5 18.5 q-5 -6 -16 -19.5t-15 -20.5q-52 -76 -90 -109q-9 -9 -25 -21q-25 -20 -51 -17t-46 17t-32 35q-7 15 -18 52q-1 3 -3 8t-3 8q-12 36 -12 53zM-41 553h2v12q-2 -4 -2 -12z" />
<glyph unicode="v" horiz-adv-x="446" d="M-18 463q-10 35 -10 76q0 46 12 100q5 30 16 66q1 4 3.5 11.5t4 11.5t1 10t-4.5 12q-2 5 2 14q6 13 17.5 35.5t15.5 31.5q1 1 12 0t15 7q5 9 14 6.5t14 -13.5q17 -31 12 -61l-30 -141q-17 -97 -17 -150q0 -17 2 -30l5 -15q60 35 127 125q19 28 48 82t38 70 q-2 -12 -6.5 -24.5t-13 -31.5t-11.5 -26q-3 -10 -11 -29.5t-10 -24.5q-10 -6 -14 -26q9 9 12 18q2 2 2 8l5 3q5 4 6 6q58 111 67 186q4 23 4 70q0 50 -6 96q-3 45 -29 63q-2 5 1.5 12t4.5 11.5t-8 11.5q33 -5 56 -43q13 -18 20 -51q29 -132 35 -166q3 -20 3 -41 q0 -64 -30 -139q-43 -99 -92 -160q-34 -40 -76 -69q-14 -9 -45 -21q-12 -4 -24 -4q-27 0 -53 22q-36 27 -48 39q-26 21 -36 62zM-4 556.5q-1 -16.5 0.5 -39t5.5 -42.5q-5 22 -2 62t6 60.5t10.5 60t10.5 59.5q-2 -11 -9 -39t-10 -41.5t-7 -38.5t-5 -41.5z" />
<glyph unicode="w" horiz-adv-x="735" d="M-29 518q19 114 60 207q11 26 20 37q12 19 25 19q14 0 28 -21q7 -9 31 -23q0 -8 -6 -20q-47 -118 -61 -221q-3 -17 -7 -82q25 4 41 28q48 61 64 88q58 84 104 191q7 17 11.5 19t23.5 -1q15 -25 35 -55q15 9 25 14l4 -2q18 -18 18 -51q0 -12 -1 -24q0 -59 13 -101 q20 -66 64 -110q4 11 17 42t16 48q32 133 49 221q3 22 3 51q0 48 -9 113l-2 2q-2 9 -5 31.5t-5.5 35t-9.5 29.5t-19 29q28 19 51 -4q1 -1 9.5 -8.5t12.5 -12.5q24 -24 31 -43q38 -142 49 -182q10 -45 11 -94q0 -76 -25 -164q-5 -21 -16.5 -59.5t-14.5 -49.5q-8 -16 -12 -26 q-18 -45 -57 -45q-18 0 -41 10q-10 4 -31 12t-33.5 13.5t-28.5 16t-28 23.5q-50 60 -80 121q-4 -4 -19 -24q-12 -14 -98 -127q-9 -11 -41 -29q-21 -9 -37 -6q-17 4 -77 26q-31 13 -46 62q-8 26 -8 59q0 17 2 37zM342 588q1 -4 3 -12.5t3 -12.5h2q0 9 -4 25h-4zM582 524 q30 84 30 173q0 76 -22 157q1 -17 5 -50.5t6 -60.5t1 -51q0 -20 -2 -43.5t-4.5 -40t-7 -44t-6.5 -40.5z" />
<glyph unicode="x" horiz-adv-x="540" d="M-125 264q117 173 125 185q25 35 74 100.5t59 79.5q-67 110 -104 194q5 -1 14.5 -4t12 -2.5t10.5 4.5q3 1 10 -1t10 -5q16 -11 31 -33q8 -11 23.5 -34t23.5 -35q3 -4 9 -12.5t9 -12.5q8 9 28 33t30 35q13 15 27.5 30.5t32.5 34.5t28 29q6 6 18 14q22 17 46 17q10 0 21 -3 q35 -11 50 -49q4 -12 8 -18q-34 -26 -63.5 -62.5t-62 -83.5t-52.5 -71q-15 -23 -29 -39q15 -20 43.5 -61.5t44.5 -63.5q4 20 4 42q0 27 -6 56q-4 12 -4 19q6 12 12 14q10 5 15 -4q6 -6 14 -22q29 -52 33 -136q0 -12 -2 -18q-6 -33 -39 -21q-58 25 -90 64q-8 10 -30.5 35.5 t-33.5 40.5q-9 -11 -36 -45t-42 -52q-53 -57 -155 -163q-15 -15 -35 -25q-13 -4 -23 2q-3 3 -3.5 10t1.5 11q4 10 13.5 29.5t13.5 29.5q-15 -15 -39 -43q-15 -17 -20.5 -17t-18.5 19q-4 4 -6 8zM-27 322q5 -5 12.5 -13.5t10.5 -11.5q111 118 194 244q-23 -24 -87.5 -99.5 t-104.5 -113.5q11 16 47.5 69.5t54.5 83.5q-90 -110 -127 -159z" />
<glyph unicode="y" horiz-adv-x="456" d="M-326 119q-3 10 -3 20q0 23 15 47q22 33 56 41q7 2 12.5 0t13 -8t9.5 -8q-6 -6 -16 -17t-15 -16q-23 -27 -23 -56q0 -19 9 -38q61 -122 164 -137q18 -3 36 -3q53 0 101 31q70 40 117 138q59 121 83 295q7 54 7 57q-7 -3 -16.5 -6.5t-12.5 -5.5q-23 -10 -45 -10 q-31 0 -60 22q-4 3 -40 29q-62 44 -68 120v18q0 121 76 224q16 16 20 18q12 7 19 5.5t16 -13.5q2 -2 7 -6t7 -6q15 -9 15.5 -22t-11.5 -25q-7 -3 -10 -10q-57 -105 -57 -195q0 -45 14 -65q49 2 86 53q30 38 56 88q15 28 18 74q3 31 20 112q0 8 13 25q10 5 16 2t6 -14 q0 -4 -2 -12.5t-2 -12.5q1 -4 10 -27q3 2 10.5 6.5t10.5 6.5q19 22 33 0q14 -37 14 -52q0 -11 -1 -23.5t-2.5 -28t-2.5 -25.5q-15 -144 -17 -170q-1 -13 -4 -51t-4 -55t-4.5 -50.5t-6.5 -55t-8 -49.5t-11 -53q-43 -163 -101 -250q-73 -107 -178 -120q-13 -2 -27 -2 q-55 0 -116 26q-130 60 -195 168q-25 49 -31 72zM35 616h2q4 32 4 54h-2q-1 -9 -2 -27.5t-2 -26.5zM59 735q2 0 4 -2q2 8 7 23q-2 0 -2 2q-6 -13 -9 -23zM100 817q2 0 4 -2q2 3 5.5 9.5t5.5 9.5q0 2 -4 2q-2 -5 -11 -19zM262 291q26 114 26 195q0 13 -1 26 q-4 -37 -12.5 -110.5t-12.5 -110.5zM291 684q2 -2 6 -2q1 4 3 12.5t3 12.5q-2 2 -4 2q-1 -4 -4 -12.5t-4 -12.5z" />
<glyph unicode="z" horiz-adv-x="503" d="M-41 332q9 18 21 33q97 135 243 309q47 54 78 106q-1 1 -2 3t-2 3q-5 -1 -23.5 -1.5t-27.5 -2.5q-63 -11 -172 -34q-26 -4 -15 -27q-34 8 -45 41q-9 22 6 37q3 3 23 18q91 54 195 60h12q49 0 76 -29q2 -1 5 -3t5 -3q46 -28 56 -70q2 -10 2 -20q0 -32 -23 -64 q-35 -50 -86 -108q-20 -23 -61 -71t-62 -71q-1 0 -4 -8q9 3 18.5 6t21 7t17.5 6q57 21 114 21q28 0 56 -5q4 -1 23.5 -4t25 -4t22.5 -4t25 -5t23 -5.5t24.5 -7t21.5 -8.5t23 -11q49 -25 66 -58q15 -19 8 -39q-5 3 -16.5 8t-19 10t-11.5 11q-5 7 -10.5 12t-13 8t-11.5 4 t-14 3t-12 2q-44 9 -88 9q-56 0 -113 -15q-62 -15 -213 -82q-11 -5 -40 -17.5t-46 -19.5q-16 12 -35 12q-26 -3 -41 20t-4 48zM109 254q0 4 2 6q57 29 92.5 45.5t88 35.5t99.5 28q30 6 66 6q41 0 90 -8q-36 0 -43 2q-12 2 -26 2q-46 0 -122 -19q-101 -27 -192 -76 q-9 -4 -27.5 -11t-27.5 -11z" />
<glyph unicode="&#x2000;" horiz-adv-x="762" />
<glyph unicode="&#x2001;" horiz-adv-x="1525" />
<glyph unicode="&#x2002;" horiz-adv-x="762" />
<glyph unicode="&#x2003;" horiz-adv-x="1525" />
<glyph unicode="&#x2004;" horiz-adv-x="508" />
<glyph unicode="&#x2005;" horiz-adv-x="381" />
<glyph unicode="&#x2006;" horiz-adv-x="254" />
<glyph unicode="&#x2007;" horiz-adv-x="254" />
<glyph unicode="&#x2008;" horiz-adv-x="190" />
<glyph unicode="&#x2009;" horiz-adv-x="305" />
<glyph unicode="&#x200a;" horiz-adv-x="84" />
<glyph unicode="&#x202f;" horiz-adv-x="305" />
<glyph unicode="&#x205f;" horiz-adv-x="381" />
<glyph unicode="&#x25fc;" horiz-adv-x="880" d="M0 0v881h881v-881h-881z" />
</font>
</defs>
</svg>
